<svg width="97" height="95" viewBox="0 0 97 95" fill="none" xmlns="http://www.w3.org/2000/svg">
<path d="M48.2769 28.242C51.5839 28.242 54.2647 25.7513 54.2647 22.6789C54.2647 19.6065 51.5839 17.1157 48.2769 17.1157C44.9699 17.1157 42.2891 19.6065 42.2891 22.6789C42.2891 25.7513 44.9699 28.242 48.2769 28.242Z" fill="url(#paint0_linear_1200_435)"/>
<path d="M54.1555 1.93929C50.7327 -0.646243 45.8271 -0.646466 42.4041 1.93884L2.46967 32.0995C-2.39022 35.77 0.403303 43.0772 6.66634 43.0772H8.35802V74.2302C3.61877 76.4814 0.374242 81.0617 0.374242 86.346V91.2912C0.374242 93.3392 2.16149 95 4.36613 95H92.1877C94.3921 95 96.1796 93.3392 96.1796 91.2912V86.346C96.1796 81.0617 92.935 76.4814 88.1958 74.2302V43.0772H89.8852C96.1485 43.0772 98.942 35.7705 94.0831 32.0999L54.1555 1.93929ZM47.4401 7.69455C47.9291 7.32515 48.6299 7.32523 49.1189 7.69455L86.14 35.6597H10.4127L47.4401 7.69455ZM80.2121 72.7474H72.2283V43.0772H80.2121V72.7474ZM64.2445 72.7474H52.2688V43.0772H64.2445V72.7474ZM44.285 72.7474H32.3094V43.0772H44.285V72.7474ZM81.543 80.1649C85.2171 80.1649 88.1958 82.9324 88.1958 86.346V87.5825H8.35802V86.346C8.35802 82.9324 11.3368 80.1649 15.0111 80.1649H81.543ZM24.3256 72.7474H16.3418V43.0772H24.3256V72.7474Z" fill="url(#paint1_linear_1200_435)"/>
<defs>
<linearGradient id="paint0_linear_1200_435" x1="42.6525" y1="18.9381" x2="54.3073" y2="19.2552" gradientUnits="userSpaceOnUse">
<stop stop-color="#B6FF9C"/>
<stop offset="0.4355" stop-color="#C7FA50"/>
<stop offset="1" stop-color="#02FFE2"/>
</linearGradient>
<linearGradient id="paint1_linear_1200_435" x1="2.93049" y1="15.5603" x2="96.9024" y2="17.9742" gradientUnits="userSpaceOnUse">
<stop stop-color="#B6FF9C"/>
<stop offset="0.4355" stop-color="#C7FA50"/>
<stop offset="1" stop-color="#02FFE2"/>
</linearGradient>
</defs>
</svg>
