<svg width="92" height="80" viewBox="0 0 92 80" fill="none" xmlns="http://www.w3.org/2000/svg">
<path d="M91.3125 55.625C91.3125 56.8682 90.8186 58.0604 89.9396 58.9395C89.0605 59.8186 87.8682 60.3124 86.625 60.3124H74.3984L81.2734 71.9921C81.59 72.5195 81.7988 73.1045 81.8877 73.7131C81.9765 74.3218 81.9437 74.942 81.7911 75.5379C81.6385 76.1338 81.3692 76.6935 80.9987 77.1845C80.6282 77.6755 80.1639 78.0881 79.6328 78.3984C78.9181 78.8423 78.0913 79.0727 77.25 79.0624C76.4363 79.064 75.6365 78.852 74.9304 78.4476C74.2243 78.0431 73.6368 77.4604 73.2266 76.7578L51.0391 39.2187C50.4071 38.1464 50.227 36.8671 50.5383 35.662C50.8497 34.4569 51.627 33.4249 52.6992 32.7929C53.2301 32.48 53.8175 32.2747 54.4278 32.1888C55.038 32.1029 55.6592 32.138 56.2559 32.2922C57.461 32.6035 58.493 33.3808 59.125 34.4531L68.8516 50.9375H86.625C87.8682 50.9375 89.0605 51.4313 89.9396 52.3104C90.8186 53.1895 91.3125 54.3817 91.3125 55.625ZM48.0312 50.9375H34.0469L59.3984 8.00777C59.9305 6.94709 60.0404 5.7241 59.7061 4.58554C59.3718 3.44698 58.6181 2.47758 57.5971 1.87291C56.5761 1.26823 55.3637 1.07329 54.2046 1.32741C53.0455 1.58152 52.026 2.26578 51.3516 3.24214L46 12.2656L40.6484 3.24214C40.3601 2.6673 39.9566 2.15793 39.4629 1.74573C38.9693 1.33353 38.3961 1.02731 37.7791 0.846125C37.162 0.664942 36.5143 0.61267 35.8762 0.692559C35.238 0.772447 34.6232 0.982789 34.0698 1.3105C33.5165 1.63821 33.0365 2.07627 32.6597 2.59744C32.2829 3.11862 32.0174 3.71174 31.8797 4.33993C31.742 4.96811 31.735 5.61792 31.8592 6.24892C31.9834 6.87992 32.2361 7.47862 32.6016 8.00777L40.5703 21.4843L23.1484 50.9375H5.375C4.1318 50.9375 2.93951 51.4313 2.06044 52.3104C1.18136 53.1895 0.6875 54.3817 0.6875 55.625C0.6875 56.8682 1.18136 58.0604 2.06044 58.9395C2.93951 59.8186 4.1318 60.3124 5.375 60.3124H48.0312C49.2745 60.3124 50.4667 59.8186 51.3458 58.9395C52.2249 58.0604 52.7188 56.8682 52.7188 55.625C52.7188 54.3817 52.2249 53.1895 51.3458 52.3104C50.4667 51.4313 49.2745 50.9375 48.0312 50.9375ZM18.9688 67.2265C18.4414 66.9099 17.8564 66.7011 17.2477 66.6123C16.6391 66.5234 16.0188 66.5562 15.423 66.7088C14.8271 66.8614 14.2674 67.1308 13.7764 67.5013C13.2854 67.8718 12.8728 68.336 12.5625 68.8671L10.7266 71.9921C10.41 72.5195 10.2012 73.1045 10.1123 73.7131C10.0235 74.3218 10.0563 74.942 10.2089 75.5379C10.3615 76.1338 10.6308 76.6935 11.0013 77.1845C11.3718 77.6755 11.8361 78.0881 12.3672 78.3984C13.0819 78.8423 13.9087 79.0727 14.75 79.0624C15.5637 79.064 16.3635 78.852 17.0696 78.4476C17.7757 78.0431 18.3632 77.4604 18.7734 76.7578L20.6484 73.6328C21.274 72.5602 21.4485 71.2833 21.1336 70.0822C20.8187 68.8812 20.0401 67.8541 18.9688 67.2265Z" fill="#02FFE2"/>
</svg>
