<svg width="40" height="40" viewBox="0 0 40 40" fill="none" xmlns="http://www.w3.org/2000/svg">
<path d="M12.9906 19.8048C13.5629 20.3779 13.8844 21.1547 13.8844 21.9646C13.8844 22.7745 13.5629 23.5512 12.9906 24.1243L11.006 26.1128H28.15C28.9606 26.1128 29.738 26.4348 30.3112 27.008C30.8843 27.5811 31.2063 28.3585 31.2063 29.169C31.2063 29.9796 30.8843 30.757 30.3112 31.3301C29.738 31.9033 28.9606 32.2252 28.15 32.2252H11.006L12.9926 34.2097C13.566 34.7831 13.8881 35.5607 13.8881 36.3715C13.8881 37.1823 13.566 37.9599 12.9926 38.5332C12.4193 39.1066 11.6416 39.4287 10.8308 39.4287C10.0199 39.4287 9.24227 39.1066 8.66891 38.5332L1.46614 31.3288C0.893168 30.7556 0.571289 29.9784 0.571289 29.168C0.571289 28.3576 0.893168 27.5804 1.46614 27.0073L8.66891 19.8028C8.95275 19.5188 9.28976 19.2935 9.6607 19.1398C10.0316 18.9861 10.4292 18.907 10.8308 18.907C11.2323 18.907 11.6299 18.9861 12.0008 19.1398C12.3718 19.2935 12.7088 19.5188 12.9926 19.8028L12.9906 19.8048ZM27.009 1.46764C27.5436 0.932593 28.2576 0.614771 29.0129 0.575631C29.7683 0.536491 30.5113 0.778815 31.0984 1.25574L31.3306 1.4656L38.5334 8.67009C39.0682 9.20492 39.3856 9.91903 39.4244 10.6743C39.4632 11.4297 39.2205 12.1725 38.7433 12.7593L38.5334 12.9916L31.3306 20.196C30.778 20.7569 30.0302 21.0828 29.2431 21.1058C28.4561 21.1289 27.6905 20.8473 27.106 20.3198C26.5214 19.7923 26.163 19.0595 26.1055 18.2743C26.0479 17.489 26.2957 16.7119 26.7971 16.1048L27.0069 15.8725L28.9936 13.888H11.8495C11.0607 13.8935 10.3004 13.5938 9.72746 13.0515C9.15456 12.5093 8.8135 11.7666 8.7756 10.9787C8.73771 10.1909 9.00592 9.41884 9.52413 8.82414C10.0424 8.22945 10.7704 7.85813 11.5561 7.78786L11.8495 7.77564H28.9936L27.0069 5.78911C26.7229 5.50529 26.4976 5.16829 26.3439 4.79736C26.1902 4.42644 26.1111 4.02887 26.1111 3.62735C26.1111 3.22584 26.1902 2.82827 26.3439 2.45734C26.4976 2.08642 26.7229 1.74942 27.0069 1.4656L27.009 1.46764Z" fill="#060606"/>
</svg>
