<svg width="96" height="96" viewBox="0 0 96 96" fill="none" xmlns="http://www.w3.org/2000/svg">
<path d="M91.6223 40.5979C88.0734 19.7479 69.8851 3.92552 48 3.92552C26.1149 3.92552 7.92659 19.7479 4.37766 40.5979L48 18.7128L91.6223 40.5979ZM4.37766 55.9766C7.92659 76.8266 26.1149 92.6489 48 92.6489C69.8851 92.6489 88.0734 76.8266 91.6223 55.9766L48 77.8617L4.37766 55.9766Z" fill="#699635"/>
<path d="M48 18.7128L4.37767 40.5979C3.93405 43.1117 3.63831 45.6255 3.63831 48.2872C3.63831 50.9489 3.93405 53.4628 4.37767 55.9766L48 77.8617L91.6223 55.9766C92.066 53.4628 92.3617 50.9489 92.3617 48.2872C92.3617 45.6255 92.066 43.1117 91.6223 40.5979L48 18.7128Z" fill="#FFE62E"/>
<path d="M39.1277 42.9638C34.3957 42.9638 29.9596 43.9989 25.967 45.7734C25.8192 46.6606 25.8192 47.4 25.8192 48.2872C25.8192 60.5606 35.7266 70.4681 48 70.4681C56.2809 70.4681 63.5266 65.8841 67.3713 59.2298C61.9 49.6181 51.2532 42.9638 39.1277 42.9638Z" fill="#428BC1"/>
<path d="M69.8851 51.8362C70.033 50.6532 70.1808 49.4702 70.1808 48.2872C70.1808 36.0138 60.2734 26.1064 48 26.1064C39.2755 26.1064 31.734 31.134 28.0372 38.5277C31.5862 37.4926 35.283 36.9011 39.1277 36.9011C51.6968 36.9011 62.7872 42.816 69.8851 51.8362Z" fill="#428BC1"/>
<path d="M39.1276 36.9011C35.283 36.9011 31.5862 37.4926 28.0372 38.5277C27.0021 40.7457 26.2628 43.1117 25.967 45.7734C29.9596 43.9989 34.3957 42.9638 39.1276 42.9638C51.2532 42.9638 61.9 49.4702 67.3713 59.0819C68.7021 56.8638 69.4415 54.35 69.8851 51.8362C62.7872 42.816 51.6968 36.9011 39.1276 36.9011Z" fill="white"/>
<path d="M33.2127 49.766C34.0294 49.766 34.6915 49.1039 34.6915 48.2872C34.6915 47.4706 34.0294 46.8085 33.2127 46.8085C32.3961 46.8085 31.734 47.4706 31.734 48.2872C31.734 49.1039 32.3961 49.766 33.2127 49.766Z" fill="white"/>
<path d="M39.1276 58.6383C39.9443 58.6383 40.6064 57.9762 40.6064 57.1596C40.6064 56.3429 39.9443 55.6808 39.1276 55.6808C38.311 55.6808 37.6489 56.3429 37.6489 57.1596C37.6489 57.9762 38.311 58.6383 39.1276 58.6383Z" fill="white"/>
<path d="M48 58.6383C48.8166 58.6383 49.4787 57.9762 49.4787 57.1596C49.4787 56.3429 48.8166 55.6808 48 55.6808C47.1833 55.6808 46.5212 56.3429 46.5212 57.1596C46.5212 57.9762 47.1833 58.6383 48 58.6383Z" fill="white"/>
<path d="M48 64.5532C48.8166 64.5532 49.4787 63.8911 49.4787 63.0745C49.4787 62.2578 48.8166 61.5957 48 61.5957C47.1833 61.5957 46.5212 62.2578 46.5212 63.0745C46.5212 63.8911 47.1833 64.5532 48 64.5532Z" fill="white"/>
<path d="M59.8298 58.6383C60.6465 58.6383 61.3085 57.9762 61.3085 57.1596C61.3085 56.3429 60.6465 55.6808 59.8298 55.6808C59.0131 55.6808 58.3511 56.3429 58.3511 57.1596C58.3511 57.9762 59.0131 58.6383 59.8298 58.6383Z" fill="white"/>
<path d="M59.8298 64.5532C60.6465 64.5532 61.3085 63.8911 61.3085 63.0745C61.3085 62.2578 60.6465 61.5957 59.8298 61.5957C59.0131 61.5957 58.3511 62.2578 58.3511 63.0745C58.3511 63.8911 59.0131 64.5532 59.8298 64.5532Z" fill="white"/>
<path d="M53.9149 61.5958C54.7316 61.5958 55.3936 60.9337 55.3936 60.117C55.3936 59.3004 54.7316 58.6383 53.9149 58.6383C53.0982 58.6383 52.4362 59.3004 52.4362 60.117C52.4362 60.9337 53.0982 61.5958 53.9149 61.5958Z" fill="white"/>
<path d="M33.2127 55.6809C34.0294 55.6809 34.6915 55.0188 34.6915 54.2021C34.6915 53.3855 34.0294 52.7234 33.2127 52.7234C32.3961 52.7234 31.734 53.3855 31.734 54.2021C31.734 55.0188 32.3961 55.6809 33.2127 55.6809Z" fill="white"/>
</svg>
