<svg width="102" height="102" viewBox="0 0 102 102" fill="none" xmlns="http://www.w3.org/2000/svg">
<rect width="102" height="102" rx="51" fill="url(#paint0_linear_518_3544)"/>
<path d="M46.4465 52.6463L40.5496 46.6304L37.3394 49.9055L46.4465 59.1965L64.6608 40.6144L61.4505 37.3394L46.4465 52.6463Z" fill="#1E1E1E"/>
<path d="M51 76.5L39.7508 70.502C36.5439 68.7959 33.8621 66.2487 31.9932 63.1338C30.1244 60.019 29.139 56.4539 29.1428 52.8214V29.1429C29.1438 28.177 29.5279 27.251 30.2109 26.568C30.8938 25.8851 31.8198 25.501 32.7857 25.5H69.2142C70.1801 25.501 71.1061 25.8851 71.7891 26.568C72.472 27.251 72.8561 28.177 72.8571 29.1429V52.8214C72.861 56.4539 71.8756 60.019 70.0067 63.1338C68.1378 66.2487 65.456 68.7959 62.2491 70.502L51 76.5ZM32.7857 29.1429V52.8214C32.7827 55.7936 33.5891 58.7106 35.1185 61.2591C36.6479 63.8076 38.8424 65.8916 41.4666 67.2872L51 72.3708L60.5333 67.289C63.1578 65.8933 65.3525 63.809 66.8819 61.2602C68.4113 58.7113 69.2176 55.794 69.2142 52.8214V29.1429H32.7857Z" fill="#1E1E1E"/>
<defs>
<linearGradient id="paint0_linear_518_3544" x1="3.09585" y1="16.7069" x2="102.372" y2="19.2161" gradientUnits="userSpaceOnUse">
<stop stop-color="#B6FF9C"/>
<stop offset="0.4355" stop-color="#C7FA50"/>
<stop offset="1" stop-color="#02FFE2"/>
</linearGradient>
</defs>
</svg>
