<svg width="90" height="74" viewBox="0 0 90 74" fill="none" xmlns="http://www.w3.org/2000/svg">
<path d="M78.3334 3.66669H11.6667C7.07087 3.66669 3.33337 7.40419 3.33337 12V62C3.33337 66.5959 7.07087 70.3334 11.6667 70.3334H78.3334C82.9292 70.3334 86.6667 66.5959 86.6667 62V12C86.6667 7.40419 82.9292 3.66669 78.3334 3.66669ZM63.75 53.6667C60.9874 53.6667 58.3379 52.5692 56.3843 50.6157C54.4308 48.6622 53.3334 46.0127 53.3334 43.25C53.3334 40.4873 54.4308 37.8378 56.3843 35.8843C58.3379 33.9308 60.9874 32.8334 63.75 32.8334C66.5127 32.8334 69.1622 33.9308 71.1157 35.8843C73.0692 37.8378 74.1667 40.4873 74.1667 43.25C74.1667 46.0127 73.0692 48.6622 71.1157 50.6157C69.1622 52.5692 66.5127 53.6667 63.75 53.6667Z" fill="#02FFE2" fill-opacity="0.3"/>
<path d="M54 35C52.2076 33.6216 49.3445 32.8386 47.0834 32.8334C44.3207 32.8334 41.6712 33.9308 39.7177 35.8843C37.7642 37.8378 36.6667 40.4873 36.6667 43.25C36.6667 46.0127 37.7642 48.6622 39.7177 50.6157C41.6712 52.5692 44.3207 53.6667 47.0834 53.6667C49.3445 53.6615 52.5 53 54 50.6157M78.3334 3.66669H11.6667C7.07087 3.66669 3.33337 7.40419 3.33337 12V62C3.33337 66.5959 7.07087 70.3334 11.6667 70.3334H78.3334C82.9292 70.3334 86.6667 66.5959 86.6667 62V12C86.6667 7.40419 82.9292 3.66669 78.3334 3.66669ZM63.75 53.6667C60.9874 53.6667 58.3379 52.5692 56.3843 50.6157C54.4308 48.6622 53.3334 46.0127 53.3334 43.25C53.3334 40.4873 54.4308 37.8378 56.3843 35.8843C58.3379 33.9308 60.9874 32.8334 63.75 32.8334C66.5127 32.8334 69.1622 33.9308 71.1157 35.8843C73.0692 37.8378 74.1667 40.4873 74.1667 43.25C74.1667 46.0127 73.0692 48.6622 71.1157 50.6157C69.1622 52.5692 66.5127 53.6667 63.75 53.6667Z" stroke="#02FFE2" stroke-width="6"/>
</svg>
