<svg width="175" height="154" viewBox="0 0 175 154" fill="none" xmlns="http://www.w3.org/2000/svg">
<path d="M111.062 102.143C115.389 102.143 119.538 103.87 122.597 106.944C125.656 110.018 127.375 114.188 127.375 118.536V129.479L127.317 130.266C125.07 145.762 111.222 153.208 87.9858 153.208C64.8365 153.208 50.7642 145.85 47.7265 130.535L47.625 129.464V118.536C47.625 114.188 49.3436 110.018 52.4028 106.944C55.462 103.87 59.6112 102.143 63.9375 102.143H111.062ZM111.062 113.071H63.9375C62.4954 113.071 61.1123 113.647 60.0926 114.672C59.0729 115.697 58.5 117.086 58.5 118.536V128.881C60.53 137.624 69.7375 142.28 87.9858 142.28C106.227 142.28 115.028 137.683 116.5 129.049V118.536C116.5 117.086 115.927 115.697 114.907 114.672C113.888 113.647 112.505 113.071 111.062 113.071ZM118.269 58.4213L158.188 58.4286C162.514 58.4286 166.663 60.1557 169.722 63.2299C172.781 66.3042 174.5 70.4738 174.5 74.8214V85.7646L174.442 86.5514C172.195 102.048 158.347 109.494 135.111 109.494L132.827 109.472C130.686 104.286 126.784 100.031 121.814 97.4654C125.548 98.194 129.97 98.5656 135.111 98.5656C153.352 98.5656 162.153 93.9683 163.625 85.3347V74.8214C163.625 73.3722 163.052 71.9823 162.032 70.9576C161.013 69.9328 159.63 69.3571 158.188 69.3571H120.125C120.125 65.5248 119.472 61.8383 118.269 58.4213V58.4213ZM16.8125 58.4286L56.731 58.4213C55.7072 61.3318 55.0994 64.3735 54.9257 67.4556L54.875 69.3571H16.8125C15.3704 69.3571 13.9873 69.9328 12.9676 70.9576C11.9479 71.9823 11.375 73.3722 11.375 74.8214V85.1671C13.405 93.91 22.6125 98.5656 40.8607 98.5656C45.3702 98.5656 49.2998 98.2814 52.6928 97.7277C47.9473 100.319 44.2292 104.467 42.1585 109.48L40.8535 109.494C17.7115 109.494 3.63925 102.136 0.6015 86.821L0.5 85.75V74.8214C0.5 70.4738 2.21863 66.3042 5.27782 63.2299C8.33701 60.1557 12.4862 58.4286 16.8125 58.4286V58.4286ZM87.5 43.8571C94.2299 43.8571 100.684 46.5437 105.443 51.3259C110.202 56.1081 112.875 62.5941 112.875 69.3571C112.875 76.1201 110.202 82.6062 105.443 87.3883C100.684 92.1705 94.2299 94.8571 87.5 94.8571C80.7701 94.8571 74.3159 92.1705 69.5572 87.3883C64.7984 82.6062 62.125 76.1201 62.125 69.3571C62.125 62.5941 64.7984 56.1081 69.5572 51.3259C74.3159 46.5437 80.7701 43.8571 87.5 43.8571ZM87.5 54.7857C83.6544 54.7857 79.9662 56.3209 77.247 59.0536C74.5277 61.7862 73 65.4925 73 69.3571C73 73.2217 74.5277 76.928 77.247 79.6607C79.9662 82.3934 83.6544 83.9286 87.5 83.9286C91.3456 83.9286 95.0338 82.3934 97.753 79.6607C100.472 76.928 102 73.2217 102 69.3571C102 65.4925 100.472 61.7862 97.753 59.0536C95.0338 56.3209 91.3456 54.7857 87.5 54.7857ZM134.625 0.142853C141.355 0.142853 147.809 2.82945 152.568 7.61163C157.327 12.3938 160 18.8798 160 25.6428C160 32.4059 157.327 38.8919 152.568 43.6741C147.809 48.4562 141.355 51.1428 134.625 51.1428C127.895 51.1428 121.441 48.4562 116.682 43.6741C111.923 38.8919 109.25 32.4059 109.25 25.6428C109.25 18.8798 111.923 12.3938 116.682 7.61163C121.441 2.82945 127.895 0.142853 134.625 0.142853V0.142853ZM40.375 0.142853C47.1049 0.142853 53.5591 2.82945 58.3178 7.61163C63.0766 12.3938 65.75 18.8798 65.75 25.6428C65.75 32.4059 63.0766 38.8919 58.3178 43.6741C53.5591 48.4562 47.1049 51.1428 40.375 51.1428C33.6451 51.1428 27.1909 48.4562 22.4322 43.6741C17.6734 38.8919 15 32.4059 15 25.6428C15 18.8798 17.6734 12.3938 22.4322 7.61163C27.1909 2.82945 33.6451 0.142853 40.375 0.142853V0.142853ZM134.625 11.0714C130.779 11.0714 127.091 12.6066 124.372 15.3393C121.653 18.072 120.125 21.7783 120.125 25.6428C120.125 29.5074 121.653 33.2137 124.372 35.9464C127.091 38.6791 130.779 40.2143 134.625 40.2143C138.471 40.2143 142.159 38.6791 144.878 35.9464C147.597 33.2137 149.125 29.5074 149.125 25.6428C149.125 21.7783 147.597 18.072 144.878 15.3393C142.159 12.6066 138.471 11.0714 134.625 11.0714V11.0714ZM40.375 11.0714C36.5294 11.0714 32.8412 12.6066 30.122 15.3393C27.4027 18.072 25.875 21.7783 25.875 25.6428C25.875 29.5074 27.4027 33.2137 30.122 35.9464C32.8412 38.6791 36.5294 40.2143 40.375 40.2143C44.2206 40.2143 47.9088 38.6791 50.628 35.9464C53.3473 33.2137 54.875 29.5074 54.875 25.6428C54.875 21.7783 53.3473 18.072 50.628 15.3393C47.9088 12.6066 44.2206 11.0714 40.375 11.0714V11.0714Z" fill="url(#paint0_linear_1485_480)"/>
<defs>
<linearGradient id="paint0_linear_1485_480" x1="5.78115" y1="25.2139" x2="175.103" y2="30.0788" gradientUnits="userSpaceOnUse">
<stop stop-color="#B6FF9C"/>
<stop offset="0.4355" stop-color="#C7FA50"/>
<stop offset="1" stop-color="#02FFE2"/>
</linearGradient>
</defs>
</svg>
