<svg width="92" height="92" viewBox="0 0 92 92" fill="none" xmlns="http://www.w3.org/2000/svg">
<g clip-path="url(#clip0_1200_465)">
<path d="M57.5 17.25H34.5L25.9828 4.47422C24.707 2.55156 26.0727 0 28.3727 0H63.6273C65.9273 0 67.293 2.55156 66.0172 4.47422L57.5 17.25ZM34.5 23H57.5C58.1828 23.4492 58.9555 23.9523 59.8359 24.5094C70.0242 31.032 92 45.0836 92 74.75C92 84.2734 84.2734 92 74.75 92H17.25C7.72656 92 0 84.2734 0 74.75C0 45.0836 21.9758 31.032 32.1641 24.5094C33.0266 23.9523 33.8172 23.4492 34.5 23V23ZM49.6117 40.25C49.6117 38.2555 47.9945 36.6383 46 36.6383C44.0055 36.6383 42.3883 38.2555 42.3883 40.25V41.3281C41.382 41.5438 40.4297 41.8492 39.5312 42.2445C36.8359 43.4664 34.518 45.7305 33.943 49.0187C33.6195 50.8516 33.7992 52.6125 34.5539 54.2297C35.3086 55.8109 36.4766 56.925 37.6625 57.7336C39.7469 59.1531 42.4961 59.9797 44.5984 60.6086L44.9937 60.7344C47.4914 61.4891 49.1984 62.0641 50.2586 62.8367C50.7078 63.1602 50.8695 63.4117 50.9414 63.5734C50.9953 63.7172 51.1031 64.0406 50.9773 64.7773C50.8695 65.4062 50.5281 65.9273 49.5398 66.3586C48.4438 66.8258 46.6648 67.0594 44.3648 66.7C43.2867 66.5203 41.3641 65.8734 39.657 65.2805C39.2617 65.1367 38.8844 65.0109 38.525 64.9031C36.6383 64.2742 34.6078 65.2984 33.9789 67.1852C33.35 69.0719 34.3742 71.1023 36.2609 71.7313C36.4766 71.8031 36.7461 71.893 37.0516 72.0008C38.4711 72.4859 40.6992 73.2406 42.4062 73.6359V74.75C42.4062 76.7445 44.0234 78.3617 46.018 78.3617C48.0125 78.3617 49.6297 76.7445 49.6297 74.75V73.7617C50.6 73.582 51.5164 73.3125 52.3969 72.9352C55.218 71.7312 57.5 69.3953 58.075 65.9813C58.3984 64.1125 58.2547 62.3336 57.5359 60.6984C56.8352 59.0812 55.7031 57.8953 54.4992 57.0148C52.307 55.4336 49.4141 54.5531 47.2398 53.8883L47.0961 53.8523C44.5445 53.0797 42.8195 52.5406 41.7234 51.8039C41.2562 51.4805 41.1125 51.2648 41.0766 51.175C41.0406 51.1211 40.9508 50.8875 41.0586 50.2766C41.1125 49.9352 41.4 49.3422 42.532 48.8211C43.682 48.3 45.4789 48.0125 47.6711 48.3539C48.4437 48.4797 50.8875 48.9469 51.5703 49.1266C53.493 49.6297 55.4516 48.4977 55.9727 46.575C56.4938 44.6523 55.3437 42.6937 53.4211 42.1727C52.6305 41.957 50.8336 41.5977 49.6477 41.382V40.25H49.6117Z" fill="url(#paint0_linear_1200_465)"/>
<g clip-path="url(#clip1_1200_465)">
<rect x="52.5714" y="1.64282" width="36.1429" height="36.1429" rx="18.0714" fill="url(#paint1_linear_1200_465)"/>
<path d="M67.4334 19.4146C67.6838 19.6653 67.8245 20.0051 67.8245 20.3594C67.8245 20.7138 67.6838 21.0536 67.4334 21.3043L66.5652 22.1743H74.0657C74.4203 22.1743 74.7604 22.3152 75.0112 22.5659C75.262 22.8167 75.4028 23.1568 75.4028 23.5114C75.4028 23.866 75.262 24.2061 75.0112 24.4569C74.7604 24.7076 74.4203 24.8485 74.0657 24.8485H66.5652L67.4343 25.7167C67.6852 25.9675 67.8261 26.3078 67.8261 26.6625C67.8261 27.0172 67.6852 27.3574 67.4343 27.6082C67.1835 27.8591 66.8433 28 66.4885 28C66.1338 28 65.7936 27.8591 65.5427 27.6082L62.3915 24.4563C62.1408 24.2055 62 23.8655 62 23.511C62 23.1564 62.1408 22.8164 62.3915 22.5656L65.5427 19.4137C65.6669 19.2894 65.8143 19.1909 65.9766 19.1236C66.1389 19.0564 66.3129 19.0218 66.4885 19.0218C66.6642 19.0218 66.8381 19.0564 67.0004 19.1236C67.1627 19.1909 67.3102 19.2894 67.4343 19.4137L67.4334 19.4146ZM73.5665 11.392C73.8004 11.158 74.1128 11.0189 74.4432 11.0018C74.7737 10.9847 75.0988 11.0907 75.3556 11.2993L75.4572 11.3912L78.6084 14.5431C78.8424 14.7771 78.9813 15.0895 78.9982 15.42C79.0152 15.7504 78.909 16.0754 78.7002 16.3321L78.6084 16.4338L75.4572 19.5857C75.2154 19.8311 74.8883 19.9737 74.5439 19.9837C74.1996 19.9938 73.8647 19.8706 73.6089 19.6399C73.3532 19.4091 73.1964 19.0885 73.1712 18.745C73.146 18.4014 73.2544 18.0614 73.4738 17.7958L73.5656 17.6942L74.4347 16.826H66.9342C66.5891 16.8284 66.2565 16.6972 66.0058 16.46C65.7552 16.2228 65.606 15.8978 65.5894 15.5532C65.5728 15.2085 65.6901 14.8707 65.9169 14.6105C66.1436 14.3503 66.4621 14.1879 66.8059 14.1571L66.9342 14.1518H74.4347L73.5656 13.2827C73.4413 13.1585 73.3428 13.0111 73.2755 12.8488C73.2083 12.6865 73.1737 12.5126 73.1737 12.3369C73.1737 12.1613 73.2083 11.9873 73.2755 11.825C73.3428 11.6628 73.4413 11.5153 73.5656 11.3912L73.5665 11.392Z" fill="#060606"/>
<circle cx="70.6428" cy="19.7143" r="16.5714" stroke="#060606" stroke-width="3"/>
</g>
</g>
<defs>
<linearGradient id="paint0_linear_1200_465" x1="2.79233" y1="15.069" x2="92.3358" y2="17.3321" gradientUnits="userSpaceOnUse">
<stop stop-color="#B6FF9C"/>
<stop offset="0.4355" stop-color="#C7FA50"/>
<stop offset="1" stop-color="#02FFE2"/>
</linearGradient>
<linearGradient id="paint1_linear_1200_465" x1="53.6684" y1="7.56277" x2="88.8462" y2="8.45188" gradientUnits="userSpaceOnUse">
<stop stop-color="#B6FF9C"/>
<stop offset="0.4355" stop-color="#C7FA50"/>
<stop offset="1" stop-color="#02FFE2"/>
</linearGradient>
<clipPath id="clip0_1200_465">
<rect width="92" height="92" fill="white"/>
</clipPath>
<clipPath id="clip1_1200_465">
<rect x="52.5714" y="1.64282" width="36.1429" height="36.1429" rx="18.0714" fill="white"/>
</clipPath>
</defs>
</svg>
