<svg width="70" height="70" viewBox="0 0 70 70" fill="none" xmlns="http://www.w3.org/2000/svg">
<path d="M60.9002 3.92004H9.10017C7.72634 3.92004 6.40879 4.46579 5.43735 5.43723C4.46591 6.40867 3.92017 7.72622 3.92017 9.10004V60.9C3.92017 62.2739 4.46591 63.5914 5.43735 64.5629C6.40879 65.5343 7.72634 66.08 9.10017 66.08H60.9002C62.274 66.08 63.5915 65.5343 64.563 64.5629C65.5344 63.5914 66.0802 62.2739 66.0802 60.9V9.10004C66.0802 7.72622 65.5344 6.40867 64.563 5.43723C63.5915 4.46579 62.274 3.92004 60.9002 3.92004ZM19.4602 29.82H50.5402ZM19.4602 40.18H50.5402ZM50.5402 29.82L38.4535 17.7334ZM31.5468 52.2667L19.4602 40.18Z" fill="#02FFE2" fill-opacity="0.2"/>
<path d="M19.4602 29.82H50.5402L38.4535 17.7334M50.5402 40.18H19.4602L31.5468 52.2667M60.9002 3.92004H9.10017C7.72634 3.92004 6.40879 4.46579 5.43735 5.43723C4.46591 6.40867 3.92017 7.72622 3.92017 9.10004V60.9C3.92017 62.2739 4.46591 63.5914 5.43735 64.5629C6.40879 65.5343 7.72634 66.08 9.10017 66.08H60.9002C62.274 66.08 63.5915 65.5343 64.563 64.5629C65.5344 63.5914 66.0802 62.2739 66.0802 60.9V9.10004C66.0802 7.72622 65.5344 6.40867 64.563 5.43723C63.5915 4.46579 62.274 3.92004 60.9002 3.92004Z" stroke="#02FFE2" stroke-width="6" stroke-linecap="round" stroke-linejoin="round"/>
</svg>
