<svg width="27" height="27" viewBox="0 0 27 27" fill="none" xmlns="http://www.w3.org/2000/svg">
<path d="M0.820312 13.125C0.820312 15.5449 1.51758 17.8008 2.70703 19.6875H23.502C24.6914 17.8008 25.3887 15.5449 25.3887 13.125C25.3887 10.7051 24.6914 8.44922 23.502 6.5625H2.70703C1.51758 8.44922 0.820312 10.7051 0.820312 13.125Z" fill="#F9F9F9"/>
<path d="M23.543 6.5625C21.3691 3.11719 17.5137 0.820312 13.125 0.820312C8.73633 0.820312 4.88086 3.11719 2.70703 6.5625H23.543ZM2.70703 19.6875C4.88086 23.1328 8.73633 25.4297 13.125 25.4297C17.5137 25.4297 21.3691 23.1328 23.543 19.6875H2.70703Z" fill="#B4D7EE"/>
<path d="M18.7441 13.043L15.3809 12.9199V12.8789C15.9141 12.7969 16.3242 12.4688 16.8984 12.5098C17.5957 12.5918 18.0059 12.1816 18.252 12.0996C18.5391 12.0176 18.7031 12.1816 18.7031 12.0996C18.7441 12.0176 18.5391 11.8535 18.1289 11.8945C17.7598 11.9355 17.6367 12.2637 16.7754 12.1816C16.0371 12.1406 15.791 12.4277 15.2578 12.4277V12.3867L18.293 10.9922C18.293 10.9922 18.375 10.9512 18.375 10.8691C18.334 10.7871 18.252 10.8281 18.252 10.8281L15.1758 12.0586V12.0176C15.627 11.7305 15.873 11.2793 16.4473 11.1152C17.1035 10.9102 17.3496 10.418 17.5547 10.2129C17.7598 10.0078 18.0059 10.1309 18.0059 10.0488C18.0059 9.9668 17.7598 9.88477 17.4316 10.0898C17.1035 10.2949 17.1035 10.623 16.2832 10.8691C15.5859 11.0742 15.4629 11.4434 14.9707 11.6895L14.9297 11.6484L17.2266 9.1875C17.2266 9.1875 17.3086 9.10547 17.2676 9.06445C17.2266 9.02344 17.1445 9.10547 17.1445 9.10547L14.6836 11.4023L14.6426 11.3613C14.9707 10.9102 15.0117 10.418 15.4629 10.0488C15.9961 9.59766 15.9961 9.06445 16.1191 8.81836C16.2422 8.57227 16.4883 8.57227 16.4473 8.49023C16.4062 8.4082 16.1602 8.44922 15.9141 8.73633C15.668 9.06445 15.791 9.35156 15.1758 9.88477C14.6426 10.3359 14.6426 10.7461 14.3145 11.1152C14.3145 11.1152 14.2734 11.1152 14.2734 11.0742L15.4219 7.91602C15.4219 7.91602 15.4629 7.83398 15.3809 7.79297C15.2988 7.75195 15.2578 7.875 15.2578 7.875L13.8633 10.9102H13.8223C13.9453 10.377 13.8223 9.88477 14.0684 9.39258C14.3965 8.77734 14.1914 8.24414 14.1914 7.99805C14.2324 7.71094 14.4375 7.62891 14.3965 7.58789C14.3555 7.50586 14.1094 7.66992 13.9863 8.03906C13.9043 8.4082 14.1094 8.6543 13.7402 9.39258C13.4121 10.0488 13.5762 10.377 13.4121 10.8691H13.3711L13.248 7.50586C13.248 7.50586 13.248 7.38281 13.166 7.38281C13.084 7.38281 13.084 7.50586 13.084 7.50586L12.9609 10.8691H12.9199C12.8379 10.3359 12.5098 9.92578 12.5508 9.35156C12.6328 8.6543 12.2227 8.24414 12.1406 7.99805C12.0586 7.75195 12.2227 7.54687 12.1406 7.54687C12.0586 7.50586 11.8945 7.71094 11.9355 8.12109C11.9766 8.49023 12.3047 8.61328 12.2227 9.47461C12.1816 10.2129 12.4688 10.459 12.4688 10.9922H12.4277L11.0332 7.95703C11.0332 7.95703 10.9922 7.875 10.9102 7.875C10.8281 7.91602 10.8691 7.99805 10.8691 7.99805L12.0176 11.1563H11.9766C11.6895 10.7051 11.2383 10.459 11.0742 9.88477C10.8691 9.22852 10.377 8.98242 10.1719 8.77734C9.9668 8.57227 10.0898 8.32617 10.0078 8.32617C9.92578 8.32617 9.84375 8.57227 10.0488 8.90039C10.2539 9.22852 10.582 9.22852 10.8281 10.0488C11.0332 10.7461 11.4023 10.8691 11.6484 11.3613L11.6074 11.4023L9.14648 9.10547C9.14648 9.10547 9.06445 9.02344 9.02344 9.06445C8.98242 9.10547 9.06445 9.1875 9.06445 9.1875L11.3613 11.6484L11.3203 11.6895C10.8691 11.3613 10.377 11.3203 10.0078 10.8691C9.55664 10.3359 9.02344 10.3359 8.77734 10.2129C8.53125 10.0898 8.53125 9.84375 8.44922 9.88477C8.36719 9.92578 8.4082 10.1719 8.69531 10.418C9.02344 10.6641 9.31055 10.541 9.84375 11.1563C10.2949 11.6895 10.7051 11.6895 11.0742 12.0176C11.0742 12.0176 11.0742 12.0586 11.0332 12.0586L7.875 10.9102C7.875 10.9102 7.79297 10.8691 7.75195 10.9512C7.71094 11.0332 7.83398 11.0742 7.83398 11.0742L10.8691 12.4688V12.5098C10.3359 12.3867 9.84375 12.5098 9.35156 12.2637C8.73633 11.9355 8.20312 12.1406 7.95703 12.1406C7.66992 12.0996 7.58789 11.8945 7.54688 11.9355C7.46484 11.9766 7.62891 12.2227 7.99805 12.3457C8.36719 12.4277 8.61328 12.2227 9.35156 12.5918C10.0078 12.9199 10.3359 12.7559 10.8281 12.9199V12.9609L7.46484 13.084C7.46484 13.084 7.3418 13.084 7.3418 13.166C7.3418 13.248 7.46484 13.248 7.46484 13.248L10.8281 13.3711V13.4121C10.2949 13.4941 9.88477 13.8223 9.31055 13.7812C8.61328 13.6992 8.20312 14.1094 7.95703 14.1914C7.66992 14.2734 7.50586 14.1094 7.50586 14.1914C7.46484 14.2734 7.66992 14.4375 8.08008 14.3965C8.49023 14.3555 8.57227 14.0684 9.43359 14.1094C10.1719 14.1504 10.418 13.8633 10.9512 13.8633V13.9043L7.91602 15.2988C7.91602 15.2988 7.83398 15.3398 7.83398 15.4219C7.83398 15.5039 7.95703 15.4629 7.95703 15.4629L11.1152 14.3145V14.3555C10.6641 14.6426 10.418 15.0938 9.84375 15.2578C9.1875 15.4629 8.94141 15.9551 8.73633 16.1602C8.53125 16.3652 8.28516 16.2422 8.28516 16.3242C8.28516 16.4062 8.53125 16.4883 8.85938 16.2832C9.1875 16.0781 9.1875 15.75 10.0078 15.5039C10.7051 15.2988 10.8281 14.9297 11.3203 14.6836L11.3613 14.7246L9.06445 17.1855C9.06445 17.1855 8.98242 17.2676 9.02344 17.3086C9.06445 17.3496 9.14648 17.2676 9.14648 17.2676L11.6074 14.9707L11.6484 15.0117C11.3203 15.4629 11.2793 15.9551 10.8281 16.3242C10.2949 16.7754 10.2949 17.3086 10.1719 17.5547C10.0488 17.8008 9.80273 17.8008 9.84375 17.8828C9.88477 17.9648 10.1309 17.9238 10.377 17.6367C10.623 17.3496 10.5 17.0215 11.1152 16.4883C11.6484 16.0371 11.6484 15.627 11.9766 15.2578C11.9766 15.2578 12.0176 15.2578 12.0176 15.2988L10.8691 18.457C10.8691 18.457 10.8281 18.5391 10.9102 18.5801C10.9922 18.6211 11.0332 18.498 11.0332 18.498L12.4277 15.4629H12.4688C12.3457 15.9961 12.4688 16.4883 12.2227 16.9805C11.8945 17.5957 12.0996 18.1289 12.0586 18.375C12.0176 18.6621 11.8125 18.7441 11.8535 18.7852C11.8945 18.8672 12.1406 18.7031 12.2637 18.334C12.3457 17.9648 12.1406 17.7598 12.5098 16.9805C12.8379 16.3242 12.6738 15.9961 12.8379 15.5039H12.8789L13.002 18.8672C13.002 18.8672 13.002 18.9902 13.084 18.9902C13.166 18.9902 13.166 18.8672 13.166 18.8672L13.2891 15.5039H13.3301C13.4121 16.0371 13.7402 16.4473 13.6992 17.0215C13.6172 17.7188 14.0273 18.1289 14.1094 18.375C14.1914 18.6621 14.0273 18.8262 14.1094 18.8262C14.1914 18.8672 14.3555 18.6621 14.3145 18.252C14.2734 17.8828 13.9453 17.7598 14.0273 16.8984C14.0684 16.1602 13.7812 15.9141 13.7812 15.3809H13.8223L15.2168 18.416C15.2168 18.416 15.2578 18.498 15.3398 18.498C15.4219 18.457 15.3809 18.375 15.3809 18.375L14.1914 15.1758H14.2324C14.5195 15.627 14.9707 15.873 15.1348 16.4473C15.3398 17.1035 15.832 17.3496 16.0371 17.5547C16.2422 17.7598 16.1191 18.0059 16.2012 18.0059C16.2832 18.0059 16.3652 17.7598 16.1602 17.4316C15.9551 17.1035 15.627 17.1035 15.3809 16.2832C15.1758 15.5859 14.8066 15.4629 14.5605 14.9707L14.6016 14.9297L17.0625 17.2266C17.0625 17.2266 17.1445 17.3086 17.1855 17.2676C17.2266 17.2266 17.1445 17.1445 17.1445 17.1445L14.8477 14.6836L14.8887 14.6426C15.3398 14.9707 15.832 15.0117 16.2012 15.4629C16.6523 15.9961 17.1855 15.9961 17.4316 16.1191C17.6777 16.2422 17.6777 16.4883 17.7598 16.4473C17.8418 16.4062 17.8008 16.1602 17.5137 15.9141C17.1855 15.668 16.8984 15.791 16.3652 15.1758C15.9141 14.6426 15.5039 14.6426 15.1348 14.2734C15.1348 14.2734 15.1348 14.2324 15.1758 14.2324L18.334 15.3809C18.334 15.3809 18.416 15.4219 18.457 15.3398C18.498 15.2578 18.375 15.2168 18.375 15.2168L15.3398 13.8223V13.7812C15.873 13.9043 16.3652 13.7813 16.8574 14.0273C17.4727 14.3555 18.0059 14.1504 18.252 14.1504C18.5391 14.1914 18.6211 14.3965 18.6621 14.3555C18.7441 14.3145 18.5801 14.0684 18.2109 13.9453C17.8418 13.8633 17.5957 14.0684 16.8574 13.6992C16.2012 13.3711 15.873 13.5352 15.3809 13.3711V13.3301L18.7441 13.207C18.7441 13.207 18.8672 13.207 18.8672 13.125C18.8672 13.043 18.7441 13.043 18.7441 13.043Z" fill="#F6B40E"/>
<path d="M14.3555 12.8379C14.2324 12.7148 14.0684 12.6328 13.9043 12.6328C13.7402 12.6328 13.6172 12.7148 13.4941 12.8379C13.6992 13.002 14.0684 13.002 14.3555 12.8379ZM14.2324 12.7969C14.1504 12.8789 14.0684 12.9199 13.9863 12.9199C14.0273 12.8789 14.0684 12.8379 14.0684 12.7969C14.0684 12.7559 14.0273 12.7148 13.9863 12.6738C14.1094 12.7148 14.1914 12.7559 14.2324 12.7969ZM13.7812 12.6738C13.7402 12.7148 13.7402 12.7559 13.7402 12.7969C13.7402 12.8379 13.7812 12.9199 13.8223 12.9199C13.7402 12.9199 13.6582 12.8789 13.5762 12.7969C13.6582 12.7559 13.6992 12.7148 13.7812 12.6738Z" fill="#85340A"/>
<path d="M13.9453 12.5098C13.6992 12.5098 13.6582 12.5508 13.5762 12.6328C13.4531 12.7148 13.4121 12.7148 13.4121 12.7148C13.4121 12.7148 13.4121 12.7969 13.4531 12.7559C13.4941 12.7559 13.5762 12.7148 13.6582 12.6328C13.7812 12.5508 13.8633 12.5508 13.9863 12.5508C14.3145 12.5508 14.4785 12.7969 14.5195 12.7969C14.5605 12.7969 14.2734 12.5098 13.9453 12.5098Z" fill="#85340A"/>
<path d="M13.2479 12.4687C13.2069 12.5507 13.2069 12.5917 13.2069 12.6738C13.1659 12.9199 13.2069 13.207 13.371 13.4941C13.371 13.4941 13.412 13.4531 13.453 13.4531C13.289 13.248 13.2479 13.0019 13.2479 12.7968C13.2479 12.6738 13.33 12.5917 13.371 12.5097C13.6581 12.2636 14.1503 12.3046 14.5604 12.6328C14.1913 12.0996 13.6581 12.1406 13.2479 12.4687Z" fill="#85340A"/>
<path d="M13.6582 13.002C13.5352 12.9199 13.4941 12.8789 13.4531 12.8789C13.4121 12.8789 13.4121 12.9199 13.5762 13.002C13.7402 13.084 14.0684 13.125 14.3555 12.8789C14.0273 13.043 13.7812 13.043 13.6582 13.002ZM13.4531 13.6582C13.4121 13.6582 13.3711 13.6172 13.3301 13.5762C13.3301 13.6172 13.248 13.6992 13.125 13.6992C13.002 13.6992 12.9199 13.5762 12.9199 13.5762C12.9199 13.6172 12.8789 13.6582 12.7969 13.6582C12.7559 13.6582 12.6738 13.6172 12.6738 13.5352C12.6738 13.4941 12.7148 13.4531 12.7559 13.4531C12.6738 13.4531 12.6328 13.5352 12.6328 13.6172C12.6328 13.6992 12.7148 13.7812 12.7969 13.7812C12.8379 13.7812 12.8789 13.7402 12.9199 13.6992C12.9609 13.7402 13.084 13.7402 13.125 13.7402H13.166C13.207 13.7402 13.2891 13.7402 13.3711 13.6992C13.4121 13.7402 13.4531 13.7812 13.4941 13.7812C13.5762 13.7812 13.6582 13.6992 13.6582 13.6172C13.6582 13.5352 13.6172 13.4941 13.5352 13.4531C13.5762 13.4531 13.6172 13.4941 13.6172 13.5352C13.5762 13.6172 13.5352 13.6582 13.4531 13.6582ZM13.125 14.0273C13.207 14.0273 13.2891 13.9453 13.4121 14.0273C13.5352 14.1094 13.6172 14.1504 13.6992 14.1914C13.5352 14.0684 13.4531 13.9453 13.2891 13.9453C13.248 13.9453 13.166 13.9453 13.125 13.9863C13.043 13.9453 13.002 13.9453 12.9609 13.9453C12.7969 13.9453 12.7148 14.1094 12.5508 14.1914C12.6328 14.1504 12.7148 14.0684 12.8379 14.0273C12.9609 13.9863 13.043 14.0273 13.125 14.0273Z" fill="#85340A"/>
<path d="M13.125 14.1503C13.043 14.1503 13.002 14.1093 12.8789 14.1503C12.7969 14.1503 12.7148 14.1503 12.5918 14.1914H12.5508C12.9199 14.2324 12.7559 14.4375 13.125 14.4375C13.4941 14.4375 13.3301 14.2324 13.6992 14.1914H13.6172C13.2891 14.0683 13.248 14.1503 13.125 14.1503ZM13.125 14.3554C12.8379 14.3554 12.9199 14.1503 12.5918 14.1503C12.9199 14.0683 12.9609 14.1914 13.125 14.1914C13.248 14.1914 13.3301 14.1093 13.6582 14.1503C13.3301 14.1914 13.4121 14.3554 13.125 14.3554ZM13.125 14.4375C12.9609 14.4375 12.7969 14.5605 12.7969 14.7656C12.8379 14.6015 12.9609 14.5195 13.125 14.5195C13.2891 14.5195 13.4121 14.6425 13.4531 14.7656C13.4531 14.5605 13.2891 14.4375 13.125 14.4375ZM12.8789 12.5097C12.9609 12.5917 13.002 12.7148 13.002 12.7968C13.043 13.0019 12.9609 13.207 12.7969 13.4531C12.7969 13.4531 12.8379 13.4531 12.8789 13.4941C13.002 13.207 13.084 12.9609 13.043 12.6738C13.043 12.5917 13.002 12.5507 13.002 12.4687C12.6328 12.1406 12.0996 12.0996 11.6895 12.6328C12.0996 12.2636 12.6328 12.2226 12.8789 12.5097Z" fill="#85340A"/>
<path d="M12.6329 12.6738C12.7559 12.7559 12.7969 12.7969 12.8379 12.7969C12.879 12.7969 12.879 12.7559 12.879 12.7559C12.879 12.7559 12.7969 12.7559 12.7149 12.6738C12.5918 12.5918 12.5508 12.5508 12.3458 12.5508C11.9766 12.5508 11.7715 12.8379 11.8125 12.8379C11.8536 12.8379 12.0176 12.5918 12.3458 12.5918C12.4278 12.5918 12.5508 12.5918 12.6329 12.6738Z" fill="#85340A"/>
<path d="M11.9355 12.8379C12.0176 12.9199 12.1816 12.9609 12.3457 12.9609C12.4688 12.9609 12.6328 12.9199 12.7559 12.8379C12.6328 12.7148 12.4687 12.6328 12.3047 12.6328C12.1816 12.6328 12.0176 12.7148 11.9355 12.8379ZM12.0176 12.8379C12.0996 12.7559 12.1816 12.6738 12.2637 12.6738C12.2227 12.7148 12.1816 12.7559 12.1816 12.7969C12.1816 12.8789 12.2227 12.9199 12.2637 12.9199C12.1816 12.9609 12.0586 12.9199 12.0176 12.8379ZM12.6328 12.7969C12.5918 12.8379 12.5098 12.8789 12.4277 12.9199C12.4687 12.8789 12.4687 12.8379 12.4687 12.7969C12.4687 12.7559 12.4277 12.7148 12.4277 12.6738C12.5508 12.7148 12.6328 12.7559 12.6328 12.7969Z" fill="#85340A"/>
<path d="M12.8379 12.8789C12.7969 12.8789 12.7559 12.9199 12.6328 13.002C12.5098 13.084 12.2637 13.084 11.9355 12.9199C12.2227 13.166 12.5508 13.125 12.7148 13.043C12.8789 12.9199 12.8789 12.8789 12.8379 12.8789Z" fill="#85340A"/>
</svg>
