<svg width="227" height="180" viewBox="0 0 227 180" fill="none" xmlns="http://www.w3.org/2000/svg">
<path d="M89.9981 15C131.421 15 164.998 48.5775 164.998 90C164.998 131.423 131.421 165 89.9981 165C78.028 165.017 66.2293 162.156 55.5956 156.66L26.9006 164.662C25.2997 165.109 23.6087 165.122 22.001 164.701C20.3934 164.279 18.9267 163.437 17.7514 162.262C16.5761 161.086 15.7344 159.62 15.3126 158.012C14.8907 156.404 14.9038 154.713 15.3506 153.113L23.3606 124.44C17.8507 113.797 14.9825 101.985 14.9981 90C14.9981 48.5775 48.5756 15 89.9981 15ZM89.9981 26.25C73.0906 26.25 56.8755 32.9665 44.9201 44.922C32.9646 56.8774 26.2481 73.0925 26.2481 90C26.2481 101.025 29.0456 111.622 34.2956 121.027L35.4206 123.052L27.0806 152.933L56.9831 144.592L59.0081 145.717C67.516 150.448 76.9941 153.167 86.7157 153.666C96.4373 154.165 106.144 152.432 115.092 148.598C124.04 144.765 131.991 138.933 138.335 131.55C144.68 124.167 149.249 115.43 151.694 106.007C154.138 96.5845 154.392 86.7273 152.436 77.1914C150.48 67.6555 146.366 58.6942 140.41 50.9945C134.454 43.2948 126.814 37.0614 118.076 32.7722C109.337 28.483 99.7325 26.2519 89.9981 26.25ZM89.9981 116.25C91.9872 116.25 93.8949 117.04 95.3014 118.447C96.7079 119.853 97.4981 121.761 97.4981 123.75C97.4981 125.739 96.7079 127.647 95.3014 129.053C93.8949 130.46 91.9872 131.25 89.9981 131.25C88.009 131.25 86.1013 130.46 84.6948 129.053C83.2883 127.647 82.4981 125.739 82.4981 123.75C82.4981 121.761 83.2883 119.853 84.6948 118.447C86.1013 117.04 88.009 116.25 89.9981 116.25ZM89.9981 50.625C95.4682 50.625 100.714 52.798 104.582 56.6659C108.45 60.5339 110.623 65.7799 110.623 71.25C110.623 78.825 108.396 83.055 102.741 88.9425L101.473 90.225C96.8081 94.89 95.6231 96.87 95.6231 101.25C95.6231 102.742 95.0305 104.173 93.9756 105.227C92.9207 106.282 91.49 106.875 89.9981 106.875C88.5063 106.875 87.0755 106.282 86.0206 105.227C84.9657 104.173 84.3731 102.742 84.3731 101.25C84.3731 93.675 86.6006 89.445 92.2556 83.5575L93.5231 82.275C98.1881 77.61 99.3731 75.63 99.3731 71.25C99.3654 68.8521 98.439 66.5483 96.7847 64.8124C95.1303 63.0765 92.8737 62.0406 90.4789 61.9176C88.0841 61.7947 85.7332 62.5941 83.9098 64.1514C82.0863 65.7087 80.9289 67.9055 80.6756 70.29L80.6231 71.25C80.6231 72.7419 80.0305 74.1726 78.9756 75.2275C77.9207 76.2824 76.4899 76.875 74.9981 76.875C73.5063 76.875 72.0755 76.2824 71.0206 75.2275C69.9657 74.1726 69.3731 72.7419 69.3731 71.25C69.3731 65.7799 71.5461 60.5339 75.414 56.6659C79.282 52.798 84.528 50.625 89.9981 50.625Z" fill="url(#paint0_linear_1485_677)"/>
<path d="M192.999 35.8016C208.648 35.8016 221.333 44.6776 221.333 55.6273C221.333 66.5771 208.648 75.4531 192.999 75.4531C188.477 75.4574 184.02 74.7013 180.003 73.2485L169.163 75.3639C168.558 75.482 167.919 75.4854 167.312 75.3739C166.704 75.2624 166.15 75.0399 165.706 74.7292C165.262 74.4185 164.944 74.0308 164.785 73.6059C164.625 73.1809 164.63 72.7339 164.799 72.3107L167.825 64.7313C165.744 61.9179 164.66 58.7954 164.666 55.6273C164.666 44.6776 177.351 35.8016 192.999 35.8016ZM192.999 38.7755C186.612 38.7755 180.486 40.5509 175.97 43.7113C171.453 46.8716 168.916 51.1579 168.916 55.6273C168.916 58.5417 169.973 61.3431 171.956 63.8292L172.381 64.3645L169.231 72.2631L180.527 70.0585L181.292 70.3559C184.506 71.6063 188.087 72.325 191.759 72.457C195.432 72.589 199.099 72.1308 202.479 71.1174C205.86 70.104 208.863 68.5624 211.26 66.6108C213.657 64.6592 215.383 62.3495 216.307 59.8587C217.23 57.3679 217.326 54.7622 216.587 52.2415C215.848 49.7207 214.294 47.3519 212.044 45.3165C209.794 43.2811 206.908 41.6334 203.606 40.4996C200.305 39.3657 196.677 38.776 192.999 38.7755ZM192.999 62.5663C193.751 62.5663 194.471 62.7752 195.003 63.147C195.534 63.5188 195.833 64.0231 195.833 64.5489C195.833 65.0747 195.534 65.579 195.003 65.9508C194.471 66.3226 193.751 66.5315 192.999 66.5315C192.248 66.5315 191.527 66.3226 190.996 65.9508C190.465 65.579 190.166 65.0747 190.166 64.5489C190.166 64.0231 190.465 63.5188 190.996 63.147C191.527 62.7752 192.248 62.5663 192.999 62.5663ZM192.999 45.2188C195.066 45.2188 197.048 45.7932 198.509 46.8157C199.97 47.8382 200.791 49.2249 200.791 50.6709C200.791 52.6733 199.95 53.7915 197.813 55.3478L197.334 55.6868C195.572 56.92 195.124 57.4434 195.124 58.6012C195.124 58.9956 194.9 59.3738 194.502 59.6526C194.103 59.9315 193.563 60.0881 192.999 60.0881C192.436 60.0881 191.895 59.9315 191.497 59.6526C191.098 59.3738 190.874 58.9956 190.874 58.6012C190.874 56.5988 191.716 55.4806 193.852 53.9243L194.331 53.5853C196.093 52.3521 196.541 51.8287 196.541 50.6709C196.538 50.037 196.188 49.428 195.563 48.9692C194.938 48.5103 194.086 48.2365 193.181 48.204C192.276 48.1715 191.388 48.3828 190.699 48.7944C190.01 49.2061 189.573 49.7868 189.478 50.4171L189.458 50.6709C189.458 51.0653 189.234 51.4435 188.835 51.7223C188.437 52.0012 187.896 52.1578 187.333 52.1578C186.769 52.1578 186.229 52.0012 185.83 51.7223C185.432 51.4435 185.208 51.0653 185.208 50.6709C185.208 49.2249 186.029 47.8382 187.49 46.8157C188.951 45.7932 190.933 45.2188 192.999 45.2188Z" fill="url(#paint1_linear_1485_677)"/>
<path d="M199.333 3.55621C209.459 3.55621 217.667 9.2995 217.667 16.3846C217.667 23.4698 209.459 29.213 199.333 29.213C196.407 29.2159 193.523 28.7266 190.924 27.7865L183.91 29.1553C183.518 29.2317 183.105 29.234 182.712 29.1618C182.319 29.0897 181.96 28.9457 181.673 28.7447C181.386 28.5436 181.18 28.2928 181.077 28.0178C180.974 27.7428 180.977 27.4536 181.086 27.1797L183.044 22.2754C181.697 20.455 180.996 18.4345 181 16.3846C181 9.2995 189.208 3.55621 199.333 3.55621ZM199.333 5.48048C195.2 5.48048 191.237 6.6293 188.314 8.67423C185.392 10.7192 183.75 13.4927 183.75 16.3846C183.75 18.2704 184.434 20.0831 185.717 21.6917L185.992 22.0381L183.954 27.149L191.263 25.7224L191.758 25.9149C193.838 26.7239 196.155 27.189 198.531 27.2744C200.907 27.3598 203.28 27.0633 205.467 26.4076C207.655 25.7519 209.598 24.7544 211.149 23.4916C212.7 22.2288 213.817 20.7343 214.414 19.1226C215.012 17.5109 215.074 15.8249 214.596 14.1938C214.118 12.5627 213.112 11.0299 211.656 9.71291C210.2 8.39592 208.333 7.32972 206.197 6.59607C204.061 5.86241 201.713 5.4808 199.333 5.48048ZM199.333 20.8746C199.82 20.8746 200.286 21.0097 200.63 21.2503C200.974 21.4909 201.167 21.8172 201.167 22.1574C201.167 22.4977 200.974 22.8239 200.63 23.0645C200.286 23.3051 199.82 23.4403 199.333 23.4403C198.847 23.4403 198.381 23.3051 198.037 23.0645C197.693 22.8239 197.5 22.4977 197.5 22.1574C197.5 21.8172 197.693 21.4909 198.037 21.2503C198.381 21.0097 198.847 20.8746 199.333 20.8746ZM199.333 9.64971C200.67 9.64971 201.953 10.0214 202.898 10.683C203.844 11.3446 204.375 12.2419 204.375 13.1775C204.375 14.4732 203.831 15.1967 202.448 16.2038L202.138 16.4231C200.998 17.221 200.708 17.5597 200.708 18.3089C200.708 18.5641 200.563 18.8088 200.306 18.9892C200.048 19.1697 199.698 19.271 199.333 19.271C198.969 19.271 198.619 19.1697 198.361 18.9892C198.103 18.8088 197.958 18.5641 197.958 18.3089C197.958 17.0132 198.503 16.2897 199.885 15.2827L200.195 15.0633C201.335 14.2654 201.625 13.9267 201.625 13.1775C201.623 12.7674 201.397 12.3733 200.992 12.0764C200.588 11.7795 200.036 11.6023 199.451 11.5813C198.865 11.5602 198.291 11.697 197.845 11.9633C197.399 12.2297 197.116 12.6055 197.055 13.0133L197.042 13.1775C197.042 13.4327 196.897 13.6774 196.639 13.8579C196.381 14.0383 196.031 14.1397 195.667 14.1397C195.302 14.1397 194.952 14.0383 194.694 13.8579C194.437 13.6774 194.292 13.4327 194.292 13.1775C194.292 12.2419 194.823 11.3446 195.768 10.683C196.714 10.0214 197.996 9.64971 199.333 9.64971Z" fill="url(#paint2_linear_1485_677)"/>
<defs>
<linearGradient id="paint0_linear_1485_677" x1="19.5508" y1="39.5702" x2="165.546" y2="43.26" gradientUnits="userSpaceOnUse">
<stop stop-color="#B6FF9C"/>
<stop offset="0.4355" stop-color="#C7FA50"/>
<stop offset="1" stop-color="#02FFE2"/>
</linearGradient>
<linearGradient id="paint1_linear_1485_677" x1="166.386" y1="42.2966" x2="221.503" y2="44.2873" gradientUnits="userSpaceOnUse">
<stop stop-color="#B6FF9C"/>
<stop offset="0.4355" stop-color="#C7FA50"/>
<stop offset="1" stop-color="#02FFE2"/>
</linearGradient>
<linearGradient id="paint2_linear_1485_677" x1="182.113" y1="7.75884" x2="217.777" y2="9.04696" gradientUnits="userSpaceOnUse">
<stop stop-color="#B6FF9C"/>
<stop offset="0.4355" stop-color="#C7FA50"/>
<stop offset="1" stop-color="#02FFE2"/>
</linearGradient>
</defs>
</svg>
