<svg width="42" height="38" viewBox="0 0 42 38" fill="none" xmlns="http://www.w3.org/2000/svg">
<path d="M35.5837 37.75C34.2295 37.75 33.0142 37.3597 31.9378 36.5792C30.8614 35.7972 30.1149 34.7986 29.6982 33.5833H18.917C16.6253 33.5833 14.6635 32.7674 13.0316 31.1354C11.3996 29.5035 10.5837 27.5417 10.5837 25.25C10.5837 22.9583 11.3996 20.9965 13.0316 19.3646C14.6635 17.7326 16.6253 16.9167 18.917 16.9167H23.0837C24.2295 16.9167 25.2107 16.5083 26.0274 15.6917C26.8427 14.8764 27.2503 13.8958 27.2503 12.75C27.2503 11.6042 26.8427 10.6229 26.0274 9.80625C25.2107 8.99097 24.2295 8.58333 23.0837 8.58333H12.3024C11.851 9.79861 11.0962 10.7972 10.0378 11.5792C8.9781 12.3597 7.77116 12.75 6.41699 12.75C4.68088 12.75 3.20519 12.1424 1.98991 10.9271C0.774631 9.71181 0.166992 8.23611 0.166992 6.5C0.166992 4.76389 0.774631 3.28819 1.98991 2.07292C3.20519 0.857639 4.68088 0.25 6.41699 0.25C7.77116 0.25 8.9781 0.640278 10.0378 1.42083C11.0962 2.20278 11.851 3.20139 12.3024 4.41667H23.0837C25.3753 4.41667 27.3371 5.23264 28.9691 6.86458C30.601 8.49653 31.417 10.4583 31.417 12.75C31.417 15.0417 30.601 17.0035 28.9691 18.6354C27.3371 20.2674 25.3753 21.0833 23.0837 21.0833H18.917C17.7712 21.0833 16.7906 21.491 15.9753 22.3062C15.1587 23.1229 14.7503 24.1042 14.7503 25.25C14.7503 26.3958 15.1587 27.3771 15.9753 28.1937C16.7906 29.009 17.7712 29.4167 18.917 29.4167H29.6982C30.1496 28.2014 30.9052 27.2028 31.9649 26.4208C33.0232 25.6403 34.2295 25.25 35.5837 25.25C37.3198 25.25 38.7955 25.8576 40.0107 27.0729C41.226 28.2882 41.8337 29.7639 41.8337 31.5C41.8337 33.2361 41.226 34.7118 40.0107 35.9271C38.7955 37.1424 37.3198 37.75 35.5837 37.75ZM6.41699 8.58333C7.00727 8.58333 7.50241 8.38403 7.90241 7.98542C8.30102 7.58542 8.50033 7.09028 8.50033 6.5C8.50033 5.90972 8.30102 5.41458 7.90241 5.01458C7.50241 4.61597 7.00727 4.41667 6.41699 4.41667C5.82671 4.41667 5.33158 4.61597 4.93158 5.01458C4.53296 5.41458 4.33366 5.90972 4.33366 6.5C4.33366 7.09028 4.53296 7.58542 4.93158 7.98542C5.33158 8.38403 5.82671 8.58333 6.41699 8.58333Z" fill="#114F49"/>
</svg>
