<svg width="39" height="52" viewBox="0 0 39 52" fill="none" xmlns="http://www.w3.org/2000/svg">
<path fill-rule="evenodd" clip-rule="evenodd" d="M7.23716 29.2744C7.06002 28.1249 5.86496 27.3202 4.56811 27.4742L4.56274 27.4748L4.56274 27.4748C3.25475 27.6234 2.33828 28.6809 2.51344 29.8267C2.51906 29.8635 2.52187 29.9005 2.52187 29.9375V36.6913C2.52187 37.1495 2.10037 37.521 1.58043 37.521C1.06048 37.521 0.638983 37.1495 0.638983 36.6913V29.9897C0.36442 27.9565 1.9983 26.0942 4.31942 25.8293C6.65462 25.5534 8.79002 27.004 9.10355 29.0551L9.10425 29.0597L9.10424 29.0597C9.14948 29.3687 9.15206 29.6785 9.11198 29.9876V34.4115C9.11198 34.8697 8.69048 35.2412 8.17054 35.2412C7.65059 35.2412 7.22909 34.8697 7.22909 34.4115V29.9375C7.22909 29.902 7.23168 29.8666 7.23683 29.8313C7.26406 29.6454 7.26417 29.4603 7.23716 29.2744Z" fill="#00463E"/>
<path fill-rule="evenodd" clip-rule="evenodd" d="M36.8968 27.0145C37.352 26.8625 37.8487 27.0955 38.0062 27.535C38.6515 29.3356 38.9999 31.224 38.9999 33.2469C38.9999 43.0388 30.7845 50.9781 20.6455 50.9899C15.9481 51.2187 10.467 48.7877 6.56944 45.9293C6.54063 45.9082 6.51321 45.8854 6.48734 45.861C6.42697 45.804 6.3666 45.747 6.30627 45.6901C4.7504 44.2221 3.21421 42.7726 2.18946 41.613C1.6724 41.1957 1.31739 40.5146 1.08152 39.8446C0.819608 39.1006 0.651237 38.2165 0.609769 37.319C0.588303 36.8544 0.961009 36.4609 1.44223 36.4402C1.92345 36.4195 2.33096 36.7793 2.35243 37.2439C2.38728 37.9982 2.52928 38.7236 2.73311 39.3025C2.94998 39.9186 3.18961 40.2355 3.32292 40.3321C3.37543 40.3701 3.42333 40.4137 3.46571 40.4621C4.43487 41.5691 5.94764 42.9966 7.56998 44.5275L7.6675 44.6196C11.4101 47.3525 16.4754 49.5143 20.5773 49.3069C20.5924 49.3061 20.6077 49.3057 20.6229 49.3057C29.8089 49.3057 37.2555 42.1159 37.2555 33.2469C37.2555 31.4167 36.9413 29.7142 36.3577 28.0857C36.2002 27.6462 36.4416 27.1666 36.8968 27.0145Z" fill="#00463E"/>
<path fill-rule="evenodd" clip-rule="evenodd" d="M18.3006 29.9451C18.7576 30.0948 19.0002 30.5674 18.8423 31.0008C18.5617 31.7709 18.3543 32.4658 18.1707 33.1008C18.1458 33.1869 18.1211 33.2726 18.0967 33.3576C17.9441 33.888 17.7988 34.3932 17.6375 34.8428C17.2532 35.9134 16.7175 36.8467 15.528 37.4285C15.3135 37.5334 15.0629 37.5497 14.8354 37.4736C13.1716 36.9174 11.4772 36.5225 10.1926 36.2663C9.55187 36.1385 9.01679 36.046 8.64319 35.9856C8.45646 35.9554 8.31028 35.9332 8.21165 35.9187C8.16234 35.9115 8.12493 35.9062 8.10031 35.9027L8.07307 35.899L8.06684 35.8981L8.06567 35.898C8.06562 35.8979 8.06571 35.898 8.06567 35.898C7.58691 35.8339 7.25342 35.414 7.32094 34.9601C7.38847 34.5061 7.83137 34.19 8.3102 34.254L8.18793 35.076C8.3102 34.254 8.31008 34.254 8.3102 34.254L8.31414 34.2546L8.32316 34.2558L8.35614 34.2604C8.38466 34.2644 8.42608 34.2703 8.47953 34.2781C8.58642 34.2938 8.74149 34.3173 8.93767 34.349C9.32988 34.4125 9.88724 34.5089 10.5531 34.6417C11.7822 34.8868 13.3936 35.2583 15.0228 35.7789C15.4468 35.4817 15.7157 35.0435 15.9797 34.308C16.1222 33.9109 16.2513 33.4624 16.4055 32.9267C16.4303 32.8407 16.4556 32.7525 16.4819 32.6619C16.6681 32.0177 16.8875 31.281 17.1871 30.4587C17.345 30.0254 17.8435 29.7954 18.3006 29.9451Z" fill="#00463E"/>
<path fill-rule="evenodd" clip-rule="evenodd" d="M14.0959 19.4733C13.7242 19.3517 13.3217 19.3232 12.8917 19.4039C12.881 19.4059 12.8701 19.4077 12.8593 19.4093L4.07655 20.7106C4.03491 20.7168 3.99289 20.7199 3.95081 20.7199C3.74611 20.7199 3.55217 20.7457 3.36677 20.7957C2.19498 21.1197 1.50205 22.3496 1.82049 23.5421L1.82079 23.5433C2.13935 24.7426 3.3487 25.446 4.53001 25.1158C4.5645 25.1061 4.59954 25.0986 4.63493 25.0934L12.3721 23.9426C12.8482 23.8718 13.2907 24.2065 13.3604 24.6902C13.4302 25.174 13.1007 25.6235 12.6245 25.6944L4.9373 26.8377C2.84239 27.3913 0.70356 26.1327 0.138294 24.0045L0.979544 23.7739L0.138599 24.0057C0.138497 24.0053 0.138396 24.0049 0.138294 24.0045C-0.431121 21.8696 0.809371 19.6661 2.91233 19.0865L2.91595 19.0855L2.91595 19.0855C3.23148 19 3.55477 18.9553 3.88396 18.9499L3.82506 18.9587L3.95081 19.8346V18.9494C3.9285 18.9494 3.90622 18.9496 3.88396 18.9499L12.5924 17.6597C12.5867 17.6607 12.581 17.6618 12.5754 17.6628L12.7336 18.5333L12.6078 17.6574L12.5924 17.6597C13.2894 17.5317 13.9788 17.575 14.6301 17.7881C15.0881 17.938 15.3399 18.4367 15.1924 18.9021C15.0448 19.3674 14.5539 19.6232 14.0959 19.4733Z" fill="#00463E"/>
<path fill-rule="evenodd" clip-rule="evenodd" d="M12.5182 23.6463C12.8969 23.3365 13.4481 23.4012 13.7493 23.7908L18.7002 30.1958C19.0013 30.5854 18.9384 31.1524 18.5597 31.4623C18.181 31.7721 17.6299 31.7074 17.3287 31.3178L12.3778 24.9128C12.0766 24.5231 12.1395 23.9561 12.5182 23.6463Z" fill="#00463E"/>
<path fill-rule="evenodd" clip-rule="evenodd" d="M14.0247 18.8567C14.0954 18.4221 14.5535 18.1201 15.0481 18.1822C15.8526 18.2832 16.6303 18.5876 17.2693 19.1076C17.5181 19.3075 17.7415 19.5378 17.9268 19.7992L23.5525 25.6605C23.8746 25.9961 23.8261 26.4976 23.4443 26.7807C23.0624 27.0638 22.4918 27.0212 22.1697 26.6856L16.4991 20.7775C16.4669 20.7439 16.4378 20.708 16.4123 20.6702C16.3166 20.5283 16.1942 20.3978 16.0469 20.2796L16.0418 20.2755C15.6864 19.9858 15.253 19.814 14.7922 19.7561C14.2977 19.694 13.9541 19.2913 14.0247 18.8567Z" fill="#00463E"/>
<path fill-rule="evenodd" clip-rule="evenodd" d="M15.3917 4.29274C14.6583 3.36341 13.2955 3.187 12.3428 3.90273L12.34 3.90484L12.34 3.90484C11.3826 4.61799 11.1912 5.97334 11.9197 6.91765C11.9411 6.94532 11.9607 6.97425 11.9784 7.00428L16.5823 14.7889C16.8226 15.1953 16.6836 15.7171 16.2718 15.9543C15.86 16.1914 15.3313 16.0543 15.091 15.6479L10.5121 7.90553C9.24319 6.21137 9.59537 3.81556 11.2983 2.54584C13.0154 1.25697 15.4727 1.58466 16.7802 3.2793M15.3917 4.29274C15.3921 4.29436 15.4106 4.32265 15.4592 4.40091C15.5161 4.49263 15.5969 4.62401 15.6992 4.79137C15.9037 5.12567 16.1913 5.59845 16.5401 6.17341C17.2377 7.32307 18.1784 8.87825 19.1853 10.5444C20.3517 12.4746 21.6007 14.5436 22.6651 16.3066C23.4204 17.5578 24.0827 18.655 24.5566 19.4392C24.6937 19.7307 24.993 19.9328 25.3401 19.9328C25.8169 19.9328 26.2034 19.5513 26.2034 19.0807V19.0722C26.2034 18.9186 26.1613 18.7678 26.0816 18.6358C25.6109 17.8569 24.932 16.7324 24.1537 15.4432C23.0857 13.6739 21.8302 11.5944 20.6683 9.6716C19.6614 8.00531 18.72 6.44905 18.0216 5.29802C17.6725 4.72263 17.3836 4.24775 17.1775 3.91079C17.0746 3.74252 16.9916 3.60738 16.9317 3.51088C16.9287 3.50607 16.9255 3.50101 16.9223 3.49573C16.8815 3.42998 16.8205 3.33151 16.7804 3.27957" fill="#00463E"/>
<path fill-rule="evenodd" clip-rule="evenodd" d="M22.821 0.243C24.9819 -0.499499 27.3804 0.516496 28.1834 2.51475L28.1833 2.51476C28.2018 2.5609 28.2179 2.61351 28.2229 2.62979C28.2234 2.63126 28.2237 2.63244 28.224 2.63328C28.2351 2.66901 28.2494 2.71626 28.2663 2.773C28.3004 2.88705 28.3476 3.0475 28.4061 3.24806C28.5232 3.64959 28.6872 4.21694 28.8854 4.9063C29.282 6.28528 29.8164 8.15526 30.389 10.1694C31.5338 14.1961 32.833 18.8055 33.488 21.2196C33.6117 21.6755 33.3123 22.1379 32.8192 22.2523C32.3261 22.3667 31.8261 22.0898 31.7024 21.6338C31.0503 19.2304 29.7536 14.63 28.6086 10.6022C28.0363 8.58918 27.5023 6.72079 27.1063 5.34374C26.9083 4.65509 26.7449 4.09001 26.6287 3.69138C26.5704 3.49185 26.5244 3.33529 26.4918 3.22622C26.4754 3.17141 26.4631 3.13058 26.4545 3.10306C26.4528 3.09755 26.4514 3.09296 26.4502 3.0892C25.9943 1.98515 24.665 1.42657 23.4643 1.83797C22.2564 2.26026 21.6494 3.49819 22.0991 4.61707C22.1106 4.64566 22.1204 4.67479 22.1285 4.70434L23.705 10.4535C23.8299 10.9091 23.5317 11.3722 23.039 11.4877C22.5462 11.6032 22.0454 11.3275 21.9205 10.8719L20.3554 5.16442C19.588 3.1807 20.6736 0.991676 22.8169 0.24443L22.821 0.242991L22.821 0.243Z" fill="#00463E"/>
<path fill-rule="evenodd" clip-rule="evenodd" d="M37.2499 10.0515C37.1229 8.8857 36.0413 8.03346 34.8289 8.14798C33.611 8.26303 32.7203 9.30306 32.8397 10.4851C32.8866 10.9493 32.5345 11.3622 32.0533 11.4074C31.5721 11.4527 31.144 11.1131 31.0971 10.6489C30.8839 8.53778 32.4794 6.67303 34.6582 6.46721C36.8373 6.26136 38.7805 7.79932 38.994 9.90207L38.9941 9.90304C39.0009 9.97035 39.0002 10.1063 38.9996 10.2123C38.9996 10.2196 38.9996 10.2267 38.9995 10.2337C38.9989 10.3806 38.9971 10.5866 38.9944 10.8424C38.989 11.3544 38.9798 12.0706 38.9681 12.9216C38.9447 14.6239 38.9111 16.8687 38.8766 19.105C38.8421 21.3413 38.8068 23.5694 38.7802 25.2383C38.7668 26.0728 38.7556 26.7676 38.7478 27.2537L38.7355 28.0107C38.7355 28.0151 38.7355 28.0197 38.7355 28.0243C38.7356 28.1722 38.7358 28.3851 38.6974 28.6073C38.6179 29.0673 38.1668 29.3781 37.6899 29.3014C37.213 29.2248 36.8908 28.7897 36.9703 28.3297C36.9827 28.2582 36.9847 28.1767 36.9847 28.0041L36.9848 27.9908L37.8601 28.0041C36.9848 27.9908 36.9848 27.991 36.9848 27.9908L36.9971 27.2274C37.005 26.7414 37.0162 26.0467 37.0295 25.2123C37.0562 23.5435 37.0915 21.3157 37.1259 19.0798C37.1604 16.8438 37.194 14.6001 37.2174 12.8992C37.2291 12.0486 37.2382 11.3345 37.2436 10.8252C37.2463 10.5704 37.248 10.3681 37.2487 10.2261C37.2493 10.0946 37.2484 10.0488 37.2493 10.0487C37.2495 10.0487 37.2496 10.0497 37.2499 10.0515Z" fill="#00463E"/>
<path fill-rule="evenodd" clip-rule="evenodd" d="M24.7304 17.7068C25.087 17.4805 25.5592 17.5868 25.7851 17.9441L28.5219 22.2749C28.7477 22.6322 28.6417 23.1053 28.285 23.3316C27.9284 23.5579 27.4562 23.4517 27.2304 23.0943L24.4936 18.7636C24.2677 18.4062 24.3738 17.9331 24.7304 17.7068Z" fill="#00463E"/>
</svg>
