<svg width="143" height="108" viewBox="0 0 143 108" fill="none" xmlns="http://www.w3.org/2000/svg">
<path d="M0 18.7089C0 13.9736 1.88108 9.43228 5.22943 6.08393C8.57778 2.73557 13.1191 0.854492 17.8544 0.854492L124.981 0.854492C129.716 0.854492 134.257 2.73557 137.606 6.08393C140.954 9.43228 142.835 13.9736 142.835 18.7089V90.1265C142.835 94.8618 140.954 99.4031 137.606 102.751C134.257 106.1 129.716 107.981 124.981 107.981H17.8544C13.1191 107.981 8.57778 106.1 5.22943 102.751C1.88108 99.4031 0 94.8618 0 90.1265L0 18.7089ZM17.8544 9.78169C15.4868 9.78169 13.2161 10.7222 11.5419 12.3964C9.86774 14.0706 8.9272 16.3413 8.9272 18.7089V27.6361L133.908 27.6361V18.7089C133.908 16.3413 132.967 14.0706 131.293 12.3964C129.619 10.7222 127.348 9.78169 124.981 9.78169L17.8544 9.78169ZM133.908 45.4905L8.9272 45.4905L8.9272 90.1265C8.9272 92.4941 9.86774 94.7648 11.5419 96.439C13.2161 98.1132 15.4868 99.0537 17.8544 99.0537H124.981C127.348 99.0537 129.619 98.1132 131.293 96.439C132.967 94.7648 133.908 92.4941 133.908 90.1265V45.4905Z" fill="#1E1E1E"/>
<path d="M17.8544 72.2721C17.8544 69.9045 18.7949 67.6338 20.4691 65.9596C22.1433 64.2854 24.414 63.3449 26.7816 63.3449H35.7088C38.0765 63.3449 40.3471 64.2854 42.0213 65.9596C43.6955 67.6338 44.636 69.9045 44.636 72.2721V81.1993C44.636 83.5669 43.6955 85.8376 42.0213 87.5118C40.3471 89.186 38.0765 90.1265 35.7088 90.1265H26.7816C24.414 90.1265 22.1433 89.186 20.4691 87.5118C18.7949 85.8376 17.8544 83.5669 17.8544 81.1993V72.2721Z" fill="#1E1E1E"/>
</svg>
