<svg width="152" height="152" viewBox="0 0 152 152" fill="none" xmlns="http://www.w3.org/2000/svg">
<path d="M150.947 44.4892L131.639 25.181C130.226 23.7682 127.941 23.7682 126.514 25.181C125.836 25.8597 125.448 26.7738 125.448 27.7434V33.7685H118.204V13.2692C118.204 5.94205 112.262 0.0138509 104.934 0H47.0515C39.7244 0 33.7962 5.94205 33.7823 13.2692V91.6793H26.5383V85.6541C26.5383 83.6596 24.9177 82.039 22.9232 82.039C21.9675 82.039 21.0395 82.4268 20.3608 83.1055L1.06643 102.4C-0.346363 103.813 -0.346363 106.098 1.06643 107.525L20.3746 126.833C22.5215 129.118 26.6491 127.401 26.5521 124.27V118.245H33.7962V138.759C33.7962 146.086 39.7382 152.014 47.0653 152.028H104.976C112.303 152.028 118.231 146.086 118.245 138.759V60.3208H125.489V66.3459C125.392 69.4762 129.52 71.1937 131.667 68.9083L150.975 49.6002C152.388 48.1874 152.388 45.902 150.975 44.4753L150.947 44.4892ZM47.0515 7.24403H104.962C108.286 7.24403 110.987 9.94496 110.987 13.2692V19.2943H41.0125V13.2692C41.0125 9.94496 43.7134 7.24403 47.0376 7.24403H47.0515ZM104.962 144.77H47.0515C43.7273 144.77 41.0263 142.069 41.0263 138.745V132.72H111.001V138.745C111.001 142.069 108.3 144.77 104.976 144.77H104.962ZM132.706 57.6198V56.7057C132.706 54.7111 131.085 53.0906 129.09 53.0906H100.142C98.1475 53.0906 96.527 54.7111 96.527 56.7057C96.527 58.7002 98.1475 60.3208 100.142 60.3208H111.001V125.462H41.0125V118.218H51.8716C53.8661 118.218 55.4867 116.597 55.4867 114.603C55.4867 112.608 53.8661 110.987 51.8716 110.987H22.9232C20.9287 110.987 19.3081 112.608 19.3081 114.603V115.517L8.73984 104.948L19.3081 94.3802V95.2943C19.3081 97.2889 20.9287 98.9094 22.9232 98.9094H51.8716C53.8661 98.9094 55.4867 97.2889 55.4867 95.2943C55.4867 93.2998 53.8661 91.6793 51.8716 91.6793H41.0125V26.5384H110.987V33.7824H100.128C98.1337 33.7824 96.5131 35.403 96.5131 37.3975C96.5131 39.392 98.1337 41.0126 100.128 41.0126H129.077C131.071 41.0126 132.692 39.392 132.692 37.3975V36.4833L143.26 47.0516L132.692 57.6198H132.706Z" fill="#1E1E1E"/>
<path d="M71.1798 60.3208H83.244C85.2385 60.3208 86.8591 61.9414 86.8591 63.9359C86.8591 65.9304 88.4796 67.551 90.4742 67.551C92.4687 67.551 94.0892 65.9304 94.0892 63.9359C94.0892 57.9384 89.2276 53.0906 83.2301 53.0768H79.615V47.0516C79.615 45.0571 77.9945 43.4365 75.9999 43.4365C74.0054 43.4365 72.3849 45.0571 72.3849 47.0516V53.0768H71.1798C63.8527 53.0768 57.9106 59.0188 57.9106 66.3459C57.9106 73.6731 63.8527 79.6151 71.1798 79.6151H80.8339C84.172 79.6151 86.8591 82.3161 86.8591 85.6403C86.8591 88.9645 84.1581 91.6654 80.8339 91.6654H68.7698C66.7752 91.6654 65.1547 90.0449 65.1547 88.0503C65.1547 86.0558 63.5341 84.4352 61.5396 84.4352C59.5451 84.4352 57.9245 86.0558 57.9245 88.0503C57.9245 94.0478 62.7862 98.8956 68.7836 98.9095H72.3987V104.935C72.3987 106.929 74.0193 108.55 76.0138 108.55C78.0083 108.55 79.6289 106.929 79.6289 104.935V98.9095H80.8339C88.1611 98.9095 94.1031 92.9674 94.1031 85.6403C94.1031 78.3131 88.1611 72.3711 80.8339 72.3711H71.1798C67.8418 72.3711 65.1547 69.6702 65.1547 66.3459C65.1547 63.0217 67.8556 60.3208 71.1798 60.3208Z" fill="#1E1E1E"/>
</svg>
