<svg width="163" height="130" viewBox="0 0 163 130" fill="none" xmlns="http://www.w3.org/2000/svg">
<path d="M136.279 10.3915C133.885 8.00397 133.885 4.14327 136.279 1.78114C138.674 -0.580996 142.545 -0.606396 144.914 1.78114L161.217 18.0367C162.363 19.1797 163 20.729 163 22.3546C163 23.9801 162.363 25.5295 161.217 26.6725L144.914 42.928C142.52 45.3155 138.648 45.3155 136.279 42.928C133.91 40.5405 133.885 36.6798 136.279 34.3176L142.138 28.4758L97.8153 28.425C94.4274 28.425 91.7018 25.7073 91.7018 22.3292C91.7018 18.9511 94.4274 16.2333 97.8153 16.2333H142.163L136.279 10.3915ZM26.7464 95.7331L20.8876 101.575H65.2102C68.5981 101.575 71.3236 104.293 71.3236 107.671C71.3236 111.049 68.5981 113.767 65.2102 113.767H20.8622L26.7209 119.608C29.1153 121.996 29.1153 125.857 26.7209 128.219C24.3265 130.581 20.4546 130.606 18.0856 128.219L1.78309 111.989C0.636818 110.846 0 109.296 0 107.671C0 106.045 0.636818 104.496 1.78309 103.353L18.0856 87.0974C20.4801 84.7099 24.3519 84.7099 26.7209 87.0974C29.0899 89.4849 29.1153 93.3456 26.7209 95.7077L26.7464 95.7331ZM24.4538 16.2333H86.0724C85.1299 18.0621 84.5695 20.1194 84.5695 22.3292C84.5695 29.6188 90.5046 35.5368 97.8153 35.5368H127.72C126.701 39.8547 127.873 44.5536 131.236 47.9317C136.406 53.0877 144.787 53.0877 149.958 47.9317L154.874 43.0296V97.5111C154.874 106.477 147.564 113.767 138.572 113.767H76.9531C77.8956 111.938 78.456 109.881 78.456 107.671C78.456 100.381 72.5209 94.4632 65.2102 94.4632H35.3052C36.3241 90.1453 35.1524 85.4464 31.79 82.0683C26.619 76.9123 18.2385 76.9123 13.0675 82.0683L8.15127 86.9704V32.4889C8.15127 23.5229 15.4619 16.2333 24.4538 16.2333ZM40.7564 32.4889H24.4538V48.7444C33.4457 48.7444 40.7564 41.4548 40.7564 32.4889ZM138.572 81.2555C129.58 81.2555 122.269 88.5451 122.269 97.5111H138.572V81.2555ZM81.5127 89.3833C95.0133 89.3833 105.967 78.4616 105.967 65C105.967 51.5384 95.0133 40.6167 81.5127 40.6167C68.0122 40.6167 57.0589 51.5384 57.0589 65C57.0589 78.4616 68.0122 89.3833 81.5127 89.3833Z" fill="url(#paint0_linear_1201_386)"/>
<defs>
<linearGradient id="paint0_linear_1201_386" x1="4.94728" y1="21.2931" x2="163.537" y2="26.3189" gradientUnits="userSpaceOnUse">
<stop stop-color="#B6FF9C"/>
<stop offset="0.4355" stop-color="#C7FA50"/>
<stop offset="1" stop-color="#02FFE2"/>
</linearGradient>
</defs>
</svg>
