<svg width="167" height="167" viewBox="0 0 167 167" fill="none" xmlns="http://www.w3.org/2000/svg">
<path d="M73.0625 20.875C80.2877 20.875 87.3507 23.0175 93.3582 27.0316C99.3657 31.0457 104.048 36.7511 106.813 43.4263C109.578 50.1016 110.301 57.4468 108.892 64.5331C107.482 71.6195 104.003 78.1288 98.894 83.2377C93.785 88.3467 87.2758 91.826 80.1894 93.2356C73.103 94.6451 65.7578 93.9217 59.0826 91.1567C52.4074 88.3918 46.702 83.7095 42.6879 77.7019C38.6738 71.6944 36.5313 64.6314 36.5313 57.4062C36.5313 47.7176 40.3801 38.4257 47.231 31.5748C54.082 24.7238 63.3738 20.875 73.0625 20.875M73.0625 10.4375C63.773 10.4375 54.692 13.1922 46.9681 18.3532C39.2441 23.5142 33.224 30.8497 29.6691 39.4321C26.1141 48.0145 25.184 57.4584 26.9963 66.5694C28.8086 75.6804 33.2819 84.0495 39.8506 90.6182C46.4193 97.1869 54.7883 101.66 63.8994 103.473C73.0104 105.285 82.4543 104.355 91.0367 100.8C99.6191 97.2448 106.955 91.2247 112.116 83.5007C117.277 75.7767 120.031 66.6958 120.031 57.4062C120.031 44.9494 115.083 33.0027 106.274 24.1943C97.4661 15.386 85.5194 10.4375 73.0625 10.4375V10.4375Z" fill="#1E1E1E"/>
<path d="M55.4124 52.7437V68.3126H62.0847V52.7437H55.4124ZM68.7571 52.7437V68.3126H75.4295V52.7437H68.7571ZM50.9641 79.4332H93.2225V72.7608H50.9641V79.4332ZM82.1019 52.7437V68.3126H88.7742V52.7437H82.1019ZM72.0933 32.7266L50.9641 43.8472V48.2954H93.2225V43.8472L72.0933 32.7266Z" fill="#1E1E1E"/>
<path d="M146.125 57.4061C146.131 47.8119 144.242 38.3109 140.566 29.449C136.889 20.587 131.498 12.5388 124.702 5.7666L117.317 13.1511C129.043 24.8717 135.64 40.7653 135.66 57.3442C135.68 73.9231 129.123 89.8328 117.426 101.582C105.729 113.331 89.8489 119.96 73.2701 120.014C56.6913 120.068 40.7683 113.543 28.9953 101.87L28.797 101.672L21.4177 109.051C28.191 115.847 36.2403 121.237 45.1031 124.913C53.966 128.588 63.4677 130.476 73.0625 130.469V146.125H52.1875V156.562H104.375V146.125H83.5V129.634C100.87 127.116 116.754 118.433 128.252 105.173C139.75 91.9117 146.094 74.9574 146.125 57.4061V57.4061Z" fill="#1E1E1E"/>
</svg>
