<svg width="224" height="89" viewBox="0 0 224 89" fill="none" xmlns="http://www.w3.org/2000/svg">
<path fill-rule="evenodd" clip-rule="evenodd" d="M195.049 21.9042C188.988 21.9042 183.175 24.3121 178.889 28.5981C174.603 32.8842 172.195 38.6973 172.195 44.7587C172.195 47.76 172.786 50.7319 173.935 53.5047C175.083 56.2776 176.767 58.797 178.889 60.9193C181.011 63.0415 183.531 64.7249 186.303 65.8735C189.076 67.022 192.048 67.6132 195.049 67.6132C198.051 67.6132 201.023 67.022 203.795 65.8735C206.568 64.7249 209.088 63.0415 211.21 60.9193C213.332 58.797 215.016 56.2776 216.164 53.5047C217.313 50.7319 217.904 47.76 217.904 44.7587C217.904 38.6973 215.496 32.8842 211.21 28.5981C206.924 24.3121 201.111 21.9042 195.049 21.9042ZM175.109 24.8179C180.397 19.5292 187.57 16.5581 195.049 16.5581C202.529 16.5581 209.702 19.5292 214.99 24.8179C220.279 30.1065 223.25 37.2794 223.25 44.7587C223.25 48.462 222.521 52.1291 221.103 55.5506C219.686 58.972 217.609 62.0808 214.99 64.6995C212.372 67.3182 209.263 69.3954 205.841 70.8126C202.42 72.2298 198.753 72.9593 195.049 72.9593C191.346 72.9593 187.679 72.2298 184.258 70.8126C180.836 69.3954 177.727 67.3182 175.109 64.6995C172.49 62.0808 170.413 58.972 168.996 55.5506C167.578 52.1291 166.849 48.462 166.849 44.7587C166.849 37.2794 169.82 30.1065 175.109 24.8179ZM195.049 33.2498C190.83 33.2498 187.765 35.2741 186.769 37.389C186.139 38.7244 184.547 39.2968 183.211 38.6675C181.876 38.0382 181.303 36.4455 181.933 35.11C184.05 30.6161 189.386 27.9037 195.049 27.9037C198.706 27.9037 202.118 29.0113 204.677 30.9305C207.236 32.8504 209.068 35.7064 209.068 39.0859C209.068 44.8481 203.955 48.8839 198.373 49.9563L198.373 49.9564C198.133 50.0024 197.938 50.1207 197.825 50.2405C197.724 50.347 197.722 50.4096 197.722 50.4315C197.722 51.9078 196.526 53.1045 195.049 53.1045C193.573 53.1045 192.376 51.9078 192.376 50.4315C192.376 47.2846 194.884 45.1825 197.364 44.7063C201.585 43.8954 203.722 41.2656 203.722 39.0859C203.722 37.7654 203.015 36.3669 201.469 35.2072C199.922 34.0467 197.661 33.2498 195.049 33.2498ZM192.376 58.9407C192.376 57.4644 193.573 56.2676 195.049 56.2676H195.078C196.554 56.2676 197.751 57.4644 197.751 58.9407C197.751 60.4169 196.554 61.6137 195.078 61.6137H195.049C193.573 61.6137 192.376 60.4169 192.376 58.9407Z" fill="url(#paint0_linear_518_3617)"/>
<path fill-rule="evenodd" clip-rule="evenodd" d="M28.9506 21.9042C22.8892 21.9042 17.0761 24.3121 12.79 28.5981C8.50396 32.8842 6.09608 38.6973 6.09608 44.7587C6.09608 47.76 6.68723 50.7319 7.83578 53.5047C8.98432 56.2776 10.6678 58.797 12.79 60.9193C14.9122 63.0415 17.4317 64.7249 20.2045 65.8735C22.9774 67.022 25.9493 67.6132 28.9506 67.6132C31.9519 67.6132 34.9238 67.022 37.6966 65.8735C40.4695 64.7249 42.9889 63.0415 45.1111 60.9193C47.2334 58.797 48.9168 56.2776 50.0654 53.5047C51.2139 50.7319 51.8051 47.76 51.8051 44.7587C51.8051 38.6973 49.3972 32.8842 45.1111 28.5981C40.8251 24.3121 35.012 21.9042 28.9506 21.9042ZM9.00976 24.8179C14.2984 19.5292 21.4713 16.5581 28.9506 16.5581C36.4298 16.5581 43.6028 19.5292 48.8914 24.8179C54.18 30.1065 57.1512 37.2794 57.1512 44.7587C57.1512 48.462 56.4217 52.1291 55.0045 55.5506C53.5873 58.972 51.5101 62.0808 48.8914 64.6995C46.2727 67.3182 43.1639 69.3954 39.7425 70.8126C36.321 72.2298 32.6539 72.9593 28.9506 72.9593C25.2472 72.9593 21.5801 72.2298 18.1587 70.8126C14.7372 69.3954 11.6284 67.3182 9.00976 64.6995C6.39109 62.0808 4.31385 58.972 2.89664 55.5506C1.47943 52.1291 0.75 48.462 0.75 44.7587C0.75 37.2794 3.72112 30.1065 9.00976 24.8179ZM28.9506 33.2498C24.7315 33.2498 21.6663 35.2741 20.6697 37.389C20.0404 38.7244 18.4477 39.2968 17.1122 38.6675C15.7768 38.0382 15.2044 36.4455 15.8337 35.11C17.9514 30.6161 23.2876 27.9037 28.9506 27.9037C32.607 27.9037 36.0194 29.0113 38.578 30.9305C41.1375 32.8504 42.9692 35.7064 42.9692 39.0859C42.9692 44.8481 37.8563 48.8839 32.2743 49.9563L32.2737 49.9564C32.0343 50.0024 31.8392 50.1207 31.7259 50.2405C31.6252 50.347 31.6236 50.4096 31.6236 50.4315C31.6236 51.9078 30.4269 53.1045 28.9506 53.1045C27.4743 53.1045 26.2775 51.9078 26.2775 50.4315C26.2775 47.2846 28.7852 45.1825 31.2656 44.7063C35.4862 43.8954 37.6231 41.2656 37.6231 39.0859C37.6231 37.7654 36.9162 36.3669 35.3701 35.2072C33.823 34.0467 31.5626 33.2498 28.9506 33.2498ZM26.2775 58.9407C26.2775 57.4644 27.4743 56.2676 28.9506 56.2676H28.9789C30.4552 56.2676 31.652 57.4644 31.652 58.9407C31.652 60.4169 30.4552 61.6137 28.9789 61.6137H28.9506C27.4743 61.6137 26.2775 60.4169 26.2775 58.9407Z" fill="url(#paint1_linear_518_3617)"/>
<path fill-rule="evenodd" clip-rule="evenodd" d="M112 8.43602C102.435 8.43602 93.2622 12.2356 86.4989 18.9989C79.7356 25.7622 75.936 34.9352 75.936 44.5C75.936 49.236 76.8688 53.9256 78.6812 58.3011C80.4936 62.6766 83.1501 66.6522 86.4989 70.0011C89.8478 73.3499 93.8234 76.0064 98.1989 77.8188C102.574 79.6312 107.264 80.564 112 80.564C116.736 80.564 121.426 79.6312 125.801 77.8188C130.177 76.0064 134.152 73.3499 137.501 70.0011C140.85 66.6522 143.506 62.6766 145.319 58.3011C147.131 53.9256 148.064 49.236 148.064 44.5C148.064 34.9352 144.264 25.7622 137.501 18.9989C130.738 12.2356 121.565 8.43602 112 8.43602ZM80.5337 13.0337C88.8791 4.68838 100.198 0 112 0C123.802 0 135.121 4.68838 143.466 13.0337C151.812 21.3791 156.5 32.6979 156.5 44.5C156.5 50.3438 155.349 56.1304 153.113 61.5294C150.876 66.9284 147.598 71.834 143.466 75.9662C139.334 80.0985 134.428 83.3763 129.029 85.6126C123.63 87.849 117.844 89 112 89C106.156 89 100.37 87.849 94.9706 85.6126C89.5716 83.3763 84.666 80.0985 80.5337 75.9662C76.4015 71.834 73.1237 66.9284 70.8874 61.5294C68.651 56.1304 67.5 50.3438 67.5 44.5C67.5 32.6979 72.1884 21.3791 80.5337 13.0337ZM112 26.3391C105.342 26.3391 100.506 29.5335 98.9329 32.8707C97.9399 34.978 95.4266 35.8813 93.3193 34.8882C91.212 33.8952 90.3088 31.3819 91.3018 29.2746C94.6435 22.1833 103.064 17.9031 112 17.9031C117.77 17.9031 123.154 19.651 127.192 22.6794C131.231 25.7089 134.121 30.2157 134.121 35.5484C134.121 44.6411 126.053 51.0095 117.245 52.7018L117.244 52.702C116.866 52.7744 116.558 52.9611 116.379 53.1502C116.22 53.3182 116.218 53.417 116.218 53.4516C116.218 55.7811 114.33 57.6696 112 57.6696C109.67 57.6696 107.782 55.7811 107.782 53.4516C107.782 48.4859 111.739 45.1687 115.653 44.4173C122.313 43.1377 125.685 38.9879 125.685 35.5484C125.685 33.4648 124.57 31.2579 122.13 29.4279C119.689 27.5967 116.122 26.3391 112 26.3391ZM107.782 66.8789C107.782 64.5493 109.67 62.6609 112 62.6609H112.045C114.374 62.6609 116.263 64.5493 116.263 66.8789C116.263 69.2084 114.374 71.0969 112.045 71.0969H112C109.67 71.0969 107.782 69.2084 107.782 66.8789Z" fill="#02FFE2"/>
<defs>
<linearGradient id="paint0_linear_518_3617" x1="168.561" y1="25.7962" x2="223.456" y2="27.1837" gradientUnits="userSpaceOnUse">
<stop stop-color="#B6FF9C"/>
<stop offset="0.4355" stop-color="#C7FA50"/>
<stop offset="1" stop-color="#02FFE2"/>
</linearGradient>
<linearGradient id="paint1_linear_518_3617" x1="2.46186" y1="25.7962" x2="57.357" y2="27.1837" gradientUnits="userSpaceOnUse">
<stop stop-color="#B6FF9C"/>
<stop offset="0.4355" stop-color="#C7FA50"/>
<stop offset="1" stop-color="#02FFE2"/>
</linearGradient>
</defs>
</svg>
