<svg version="1.1" id="Layer_1" xmlns="http://www.w3.org/2000/svg" xmlns:xlink="http://www.w3.org/1999/xlink" x="0px" y="0px"
	 viewBox="0 0 512 512" style="enable-background:new 0 0 512 512;" xml:space="preserve">
<style type="text/css">
	.st0{clip-path:url(#SVGID_00000067931204080715409000000006194939594190057645_);}
	.st1{clip-path:url(#SVGID_00000008121193512203547060000011357885101975540905_);}
	.st2{clip-path:url(#SVGID_00000025439272970706525940000000735621561184122523_);}
	.st3{clip-path:url(#SVGID_00000181065782216620115320000012129905296110097290_);}
	
		.st4{clip-path:url(#SVGID_00000008121193512203547060000011357885101975540905_);fill:url(#SVGID_00000123402153892666142830000002789198613908806533_);}
	.st5{clip-path:url(#SVGID_00000008121193512203547060000011357885101975540905_);fill:#FFE236;}
	.st6{fill:url(#SVGID_00000060735434823357600500000010866607298281799573_);}
	.st7{fill:#FFE236;}
	.st8{fill:url(#SVGID_00000029026552343560711250000010927284667933986435_);}
	.st9{clip-path:url(#SVGID_00000008121193512203547060000011357885101975540905_);fill:#4DE380;}
	.st10{clip-path:url(#SVGID_00000038414901204870154660000005188878516094028956_);}
	.st11{fill:url(#SVGID_00000061442805553662710040000012804408922788605568_);}
</style>
<g>
	
		<linearGradient id="SVGID_00000167369803526246949920000014509306152987620238_" gradientUnits="userSpaceOnUse" x1="256" y1="478.62" x2="256" y2="33.38">
		<stop  offset="0" style="stop-color:#101313"/>
		<stop  offset="0.2994" style="stop-color:#131717"/>
		<stop  offset="0.5963" style="stop-color:#1D2323"/>
		<stop  offset="0.8914" style="stop-color:#2D3637"/>
		<stop  offset="1" style="stop-color:#343F40"/>
	</linearGradient>
	<path style="fill:url(#SVGID_00000167369803526246949920000014509306152987620238_);" d="M436.82,214.2
		c0-102.85-85.88-185.65-189.84-180.6c-90.31,4.39-165.06,77.46-171.35,167.66c-5.37,77.08,37.66,144.59,101.69,175.59
		c12.91,6.25,23.73,16.11,30.08,28.98l34.47,69.79c1.87,3.79,7.18,4.06,9.42,0.47l43.88-70.18c6.94-11.1,17.32-19.52,29.44-24.5
		C390.43,354.38,436.82,289.76,436.82,214.2z"/>
	<polygon class="st7" points="256,109.03 289.35,176.61 363.94,187.45 309.97,240.06 322.71,314.34 256,279.27 189.29,314.34 
		202.03,240.06 148.06,187.45 222.65,176.61 	"/>
</g>
</svg>