<svg width="102" height="102" viewBox="0 0 102 102" fill="none" xmlns="http://www.w3.org/2000/svg">
<g clip-path="url(#clip0_1200_451)">
<path d="M101.294 29.8546L88.3368 16.8978C87.3887 15.9497 85.8551 15.9497 84.8977 16.8978C84.4423 17.3532 84.1821 17.9666 84.1821 18.6173V22.6605H79.3209V8.90432C79.3209 3.98742 75.3335 0.0092947 70.4166 0H31.5741C26.6572 0 22.6791 3.98742 22.6698 8.90432V61.5216H17.8086V57.4784C17.8086 56.14 16.7212 55.0525 15.3827 55.0525C14.7414 55.0525 14.1186 55.3127 13.6632 55.7682L0.715683 68.7157C-0.232376 69.6638 -0.232376 71.1974 0.715683 72.1547L13.6725 85.1115C15.1132 86.6452 17.883 85.4926 17.8179 83.392V79.3488H22.6791V93.1143C22.6791 98.0312 26.6665 102.009 31.5834 102.019H70.4445C75.3614 102.019 79.3395 98.0312 79.3488 93.1143V40.4784H84.2099V44.5216C84.1449 46.6222 86.9147 47.7747 88.3554 46.2411L101.312 33.2843C102.26 32.3363 102.26 30.8026 101.312 29.8453L101.294 29.8546ZM31.5741 4.86113H70.4352C72.6659 4.86113 74.4784 6.67359 74.4784 8.90432V12.9475H27.5216V8.90432C27.5216 6.67359 29.3341 4.86113 31.5648 4.86113H31.5741ZM70.4352 97.1482H31.5741C29.3433 97.1482 27.5309 95.3357 27.5309 93.105V89.0618H74.4877V93.105C74.4877 95.3357 72.6752 97.1482 70.4445 97.1482H70.4352ZM89.0525 38.6659V38.0525C89.0525 36.714 87.965 35.6266 86.6266 35.6266H67.2007C65.8622 35.6266 64.7747 36.714 64.7747 38.0525C64.7747 39.3909 65.8622 40.4784 67.2007 40.4784H74.4877V84.1914H27.5216V79.3302H34.8086C36.1471 79.3302 37.2345 78.2428 37.2345 76.9043C37.2345 75.5659 36.1471 74.4784 34.8086 74.4784H15.3827C14.0443 74.4784 12.9568 75.5659 12.9568 76.9043V77.5178L5.86494 70.4259L12.9568 63.3341V63.9475C12.9568 65.286 14.0443 66.3734 15.3827 66.3734H34.8086C36.1471 66.3734 37.2345 65.286 37.2345 63.9475C37.2345 62.6091 36.1471 61.5216 34.8086 61.5216H27.5216V17.8086H74.4784V22.6698H67.1914C65.8529 22.6698 64.7654 23.7572 64.7654 25.0957C64.7654 26.4341 65.8529 27.5216 67.1914 27.5216H86.6173C87.9557 27.5216 89.0432 26.4341 89.0432 25.0957V24.4822L96.135 31.5741L89.0432 38.6659H89.0525Z" fill="url(#paint0_linear_1200_451)"/>
<path d="M47.7655 40.4784H55.8611C57.1996 40.4784 58.2871 41.5659 58.2871 42.9043C58.2871 44.2428 59.3745 45.3303 60.713 45.3303C62.0514 45.3303 63.1389 44.2428 63.1389 42.9043C63.1389 38.8797 59.8765 35.6266 55.8519 35.6173H53.4259V31.5741C53.4259 30.2357 52.3385 29.1482 51 29.1482C49.6616 29.1482 48.5741 30.2357 48.5741 31.5741V35.6173H47.7655C42.8486 35.6173 38.8611 39.6047 38.8611 44.5216C38.8611 49.4385 42.8486 53.4259 47.7655 53.4259H54.2439C56.4839 53.4259 58.2871 55.2384 58.2871 57.4691C58.2871 59.6999 56.4746 61.5123 54.2439 61.5123H46.1482C44.8098 61.5123 43.7223 60.4248 43.7223 59.0864C43.7223 57.748 42.6348 56.6605 41.2964 56.6605C39.9579 56.6605 38.8704 57.748 38.8704 59.0864C38.8704 63.111 42.1329 66.3642 46.1575 66.3735H48.5834V70.4166C48.5834 71.7551 49.6709 72.8426 51.0093 72.8426C52.3478 72.8426 53.4352 71.7551 53.4352 70.4166V66.3735H54.2439C59.1608 66.3735 63.1482 62.386 63.1482 57.4691C63.1482 52.5522 59.1608 48.5648 54.2439 48.5648H47.7655C45.5254 48.5648 43.7223 46.7524 43.7223 44.5216C43.7223 42.2909 45.5347 40.4784 47.7655 40.4784V40.4784Z" fill="url(#paint1_linear_1200_451)"/>
</g>
<defs>
<linearGradient id="paint0_linear_1200_451" x1="3.10105" y1="16.7099" x2="102.396" y2="19.2196" gradientUnits="userSpaceOnUse">
<stop stop-color="#B6FF9C"/>
<stop offset="0.4355" stop-color="#C7FA50"/>
<stop offset="1" stop-color="#02FFE2"/>
</linearGradient>
<linearGradient id="paint1_linear_1200_451" x1="39.5983" y1="36.305" x2="63.2473" y2="36.6373" gradientUnits="userSpaceOnUse">
<stop stop-color="#B6FF9C"/>
<stop offset="0.4355" stop-color="#C7FA50"/>
<stop offset="1" stop-color="#02FFE2"/>
</linearGradient>
<clipPath id="clip0_1200_451">
<rect width="102" height="102" fill="white"/>
</clipPath>
</defs>
</svg>
