<svg width="96" height="96" viewBox="0 0 96 96" fill="none" xmlns="http://www.w3.org/2000/svg">
<g clip-path="url(#clip0_2_62)">
<mask id="mask0_2_62" style="mask-type:alpha" maskUnits="userSpaceOnUse" x="3" y="3" width="90" height="90">
<path d="M48 92.6489C72.5003 92.6489 92.3617 72.7875 92.3617 48.2872C92.3617 23.7869 72.5003 3.92554 48 3.92554C23.4997 3.92554 3.63831 23.7869 3.63831 48.2872C3.63831 72.7875 23.4997 92.6489 48 92.6489Z" fill="white"/>
</mask>
<g mask="url(#mask0_2_62)">
<path d="M48 3.92554H92.3617V15.016L86.8165 20.5612L92.3617 26.1064V37.1968L86.8165 42.742L92.3617 48.2872V59.3777L86.8165 64.9229L92.3617 70.4681V81.5585L48 87.1037L3.63831 81.5585V70.4681L9.18352 64.9229L3.63831 59.3777V48.2872L48 3.92554Z" fill="#EEEEEE"/>
<path d="M42.4548 15.016H92.3617V26.1064H42.4548V15.016ZM42.4548 37.1968H92.3617V48.2872H48L42.4548 37.1968ZM3.63831 59.3777H92.3617V70.4681H3.63831V59.3777ZM3.63831 81.5585H92.3617V92.6489H3.63831V81.5585Z" fill="#D80027"/>
<path d="M3.63831 3.92554H48V48.2872H3.63831V3.92554Z" fill="#0052B4"/>
<path d="M36.0432 46.0345L45.9206 38.9297H33.7904L43.6678 46.0345L39.8555 34.4242L36.0432 46.0345ZM22.0068 46.0345L31.8842 38.9297H19.7541L29.6315 46.0345L25.8192 34.4242L22.0068 46.0345ZM7.97052 46.0345L17.8479 38.9297H5.71777L15.5952 46.0345L11.7828 34.4242L7.97052 46.0345ZM36.0432 31.9982L45.9206 24.8934H33.7904L43.6678 31.9982L39.8555 20.3879L36.0432 31.9982ZM22.0068 31.9982L31.8842 24.8934H19.7541L29.6315 31.9982L25.8192 20.3879L22.0068 31.9982ZM7.97052 31.9982L17.8479 24.8934H5.71777L15.5952 31.9982L11.7828 20.3879L7.97052 31.9982ZM36.0432 17.7886L45.9206 10.6838H33.7904L43.6678 17.7886L39.8555 6.17828L36.0432 17.7886ZM22.0068 17.7886L31.8842 10.6838H19.7541L29.6315 17.7886L25.8192 6.17828L22.0068 17.7886ZM7.97052 17.7886L17.8479 10.6838H5.71777L15.5952 17.7886L11.7828 6.17828L7.97052 17.7886Z" fill="#EEEEEE"/>
</g>
</g>
<defs>
<clipPath id="clip0_2_62">
<rect width="88.7234" height="88.7234" fill="white" transform="translate(3.63831 3.92554)"/>
</clipPath>
</defs>
</svg>
