<svg width="46" height="38" viewBox="0 0 46 38" fill="none" xmlns="http://www.w3.org/2000/svg">
<path d="M22.9995 0.25C34.2329 0.25 43.5787 8.33333 45.5391 19C43.5808 29.6667 34.2329 37.75 22.9995 37.75C11.7662 37.75 2.42038 29.6667 0.459961 19C2.41829 8.33333 11.7662 0.25 22.9995 0.25ZM22.9995 33.5833C27.2484 33.5824 31.3712 32.1392 34.693 29.4899C38.0148 26.8407 40.3389 23.1422 41.285 19C40.3354 14.8611 38.0098 11.1667 34.6883 8.52089C31.3669 5.8751 27.246 4.43443 22.9995 4.43443C18.7531 4.43443 14.6322 5.8751 11.3107 8.52089C7.98926 11.1667 5.66364 14.8611 4.71413 19C5.66016 23.1422 7.98428 26.8407 11.3061 29.4899C14.6279 32.1392 18.7507 33.5824 22.9995 33.5833ZM22.9995 28.375C20.5131 28.375 18.1286 27.3873 16.3704 25.6291C14.6123 23.871 13.6245 21.4864 13.6245 19C13.6245 16.5136 14.6123 14.129 16.3704 12.3709C18.1286 10.6127 20.5131 9.625 22.9995 9.625C25.4859 9.625 27.8705 10.6127 29.6287 12.3709C31.3868 14.129 32.3745 16.5136 32.3745 19C32.3745 21.4864 31.3868 23.871 29.6287 25.6291C27.8705 27.3873 25.4859 28.375 22.9995 28.375Z" fill="#114844"/>
</svg>
